<svg width="1920" height="233" fill="none" xmlns="http://www.w3.org/2000/svg"><mask id="a" style="mask-type:alpha" maskUnits="userSpaceOnUse" x="0" y="0" width="1920" height="233"><path fill="#070707" d="M0 0h1920v233H0z"/></mask><g mask="url(#a)" clip-rule="evenodd" stroke-width="2.553"><g style="mix-blend-mode:screen"><path d="M2047.49-34.073c31.3 86.488 136.41 56.839 87.78 187.591-48.64 130.753-212.57 169.164-292.32 75.673-79.76-93.491-108.22-138.19-147.48-131.4-39.27 6.791-131.47 3.514-147.09-64.428-15.62-67.94-8.19-111.525 71.18-134.786 79.37-23.261 127.65-9.263 161.46 4.96 33.81 14.223 118.61-120.567 188.94-87.856 70.32 32.712 46.24 63.759 77.53 150.246z" stroke="url(#paint0_linear_795_160)" style="mix-blend-mode:overlay"/><path d="M2045.8-38.053c32.54 85.783 137.13 53.984 90.46 185.651-46.66 131.666-209.88 173.434-290.94 81.652-81.06-91.781-110.15-135.862-149.28-128.266-39.13 7.596-131.29 6.224-147.9-61.348-16.61-67.572-9.83-111.28 69.12-136.163 78.96-24.882 127.4-11.891 161.39 1.625 33.99 13.516 116.73-122.932 187.47-91.694 70.75 31.238 47.14 62.761 79.68 148.543z" stroke="url(#paint1_linear_795_160)" style="mix-blend-mode:overlay" opacity=".986"/><path d="M2044.05-41.995c33.78 85.052 137.8 51.118 93.12 183.656-44.68 132.539-207.13 177.644-289.47 87.599-82.35-90.045-112.06-133.496-151.04-125.098-38.99 8.398-131.08 8.928-148.67-58.255-17.59-67.183-11.47-111 67.05-137.494s127.11-14.511 161.27-1.706c34.15 12.806 114.81-125.254 185.95-95.498 71.14 29.757 48.02 61.745 81.79 146.796z" stroke="url(#paint2_linear_795_160)" style="mix-blend-mode:overlay" opacity=".971"/><path d="M2042.25-45.896c35 84.296 138.43 48.24 95.74 181.607-42.68 133.367-204.32 181.792-287.92 93.508-83.59-88.284-113.92-131.092-152.74-121.896-38.83 9.197-130.84 11.626-149.4-55.147-18.57-66.774-13.09-110.687 64.96-138.782 78.06-28.095 126.78-17.122 161.1-5.03 34.31 12.092 112.86-127.536 184.37-99.267 71.52 28.268 48.89 60.711 83.89 145.007z" stroke="url(#paint3_linear_795_160)" style="mix-blend-mode:overlay" opacity=".957"/><path d="M2040.39-49.758c36.21 83.515 139.01 45.352 98.33 179.506-40.68 134.154-201.46 185.878-286.28 99.38-84.82-86.499-115.75-128.651-154.41-118.661-38.65 9.991-130.54 14.315-150.07-52.028-19.54-66.344-14.71-110.339 62.86-140.024 77.57-29.685 126.41-19.725 160.87-8.349 34.46 11.376 110.88-129.773 182.75-102.999s49.74 59.66 85.95 143.175z" stroke="url(#paint4_linear_795_160)" style="mix-blend-mode:overlay" opacity=".943"/><path d="M2038.48-53.576c37.41 82.71 139.56 42.454 100.89 177.352-38.66 134.898-198.54 189.901-284.56 105.212-86.02-84.689-117.55-126.174-156.02-115.393-38.47 10.78-130.21 16.996-150.71-48.898-20.49-65.894-16.32-109.958 60.74-141.22 77.06-31.264 126.01-22.318 160.61-11.66 34.6 10.657 108.86-131.969 181.06-106.695 72.2 25.273 50.58 58.592 87.99 141.302z" stroke="url(#paint5_linear_795_160)" style="mix-blend-mode:overlay" opacity=".929"/><path d="M2036.51-57.352c38.59 81.88 140.06 39.547 103.42 175.146-36.64 135.6-195.56 193.858-282.76 111.003-87.19-82.856-119.3-123.661-157.58-112.096-38.28 11.566-129.85 19.669-151.3-45.756-21.45-65.425-17.93-109.543 58.6-142.373 76.54-32.829 125.57-24.898 160.3-14.962 34.72 9.937 106.82-134.118 179.32-110.351 72.51 23.768 51.4 57.509 90 139.389z" stroke="url(#paint6_linear_795_160)" style="mix-blend-mode:overlay" opacity=".914"/><path d="M2034.49-61.083c39.77 81.026 140.52 36.632 105.91 172.889-34.6 136.258-192.52 197.75-280.86 116.751-88.35-80.999-121.03-121.114-159.1-108.768-38.08 12.347-129.44 22.331-151.84-42.605-22.4-64.936-19.54-109.096 56.45-143.479 75.98-34.383 125.09-27.469 159.93-18.255 34.84 9.214 104.74-136.224 177.54-113.968 72.79 22.257 52.19 56.409 91.97 137.435z" stroke="url(#paint7_linear_795_160)" style="mix-blend-mode:overlay" opacity=".9"/><path d="M2032.41-64.767c40.93 80.148 140.94 33.71 108.38 170.583-32.57 136.872-189.44 201.574-278.9 122.453-89.46-79.12-122.7-118.533-160.56-105.411s-129 24.982-152.34-39.446c-23.33-64.428-21.12-108.614 54.28-144.539 75.41-35.924 124.58-30.026 159.52-21.537 34.95 8.49 102.65-138.284 175.7-117.544 73.06 20.74 52.99 55.292 93.92 135.44z" stroke="url(#paint8_linear_795_160)" style="mix-blend-mode:overlay" opacity=".886"/><path d="M2030.28-68.405c42.09 79.247 141.32 30.783 110.8 168.227-30.51 137.445-186.29 205.331-276.84 128.111-90.55-77.22-124.35-115.919-161.98-102.027-37.63 13.893-128.51 27.621-152.78-36.28-24.26-63.9-22.71-108.1 52.1-145.551 74.81-37.452 124.02-32.572 159.06-24.808 35.04 7.763 100.51-140.299 173.81-121.079 73.3 19.22 53.75 54.161 95.83 133.407z" stroke="url(#paint9_linear_795_160)" style="mix-blend-mode:overlay" opacity=".871"/><path d="M2028.11-71.995c43.21 78.322 141.64 27.85 113.18 165.822-28.46 137.973-183.1 209.019-274.71 133.72-91.61-75.299-125.95-113.274-163.34-98.616-37.39 14.657-128 30.248-153.18-33.106-25.19-63.354-24.29-107.554 49.9-146.519s123.43-35.102 158.55-28.066c35.13 7.035 98.35-142.267 171.87-124.571 73.52 17.697 54.51 53.014 97.73 131.336z" stroke="url(#paint10_linear_795_160)" style="mix-blend-mode:overlay" opacity=".857"/><path d="M2025.88-75.536c44.33 77.374 141.93 24.911 115.53 163.369-26.39 138.457-179.85 212.636-272.49 139.279-92.64-73.357-127.51-110.596-164.66-95.18-37.14 15.417-127.44 32.862-153.54-29.926-26.1-62.79-25.85-106.975 47.7-147.44 73.55-40.464 122.8-37.618 158-31.31 35.2 6.306 96.17-144.189 169.88-128.019 73.72 16.169 55.24 51.852 99.58 129.227z" stroke="url(#paint11_linear_795_160)" style="mix-blend-mode:overlay" opacity=".843"/><path d="M2023.6-79.03c45.44 76.405 142.17 21.971 117.85 160.87-24.33 138.899-176.56 216.182-270.2 144.787-93.65-71.395-129.04-107.889-165.92-91.718-36.89 16.17-126.85 35.462-153.85-26.743-27.01-62.205-27.42-106.363 45.47-148.312 72.89-41.95 122.15-40.12 157.41-34.542 35.26 5.578 93.95-146.062 167.84-131.422 73.89 14.639 55.96 50.676 101.4 127.08z" stroke="url(#paint12_linear_795_160)" style="mix-blend-mode:overlay" opacity=".829"/><path d="M2021.27-82.467c46.53 75.412 142.38 19.027 120.12 158.323-22.25 139.296-173.2 219.656-267.82 150.243-94.62-69.414-130.52-105.152-167.14-88.235-36.61 16.918-126.21 38.047-154.11-23.555-27.9-61.603-28.96-105.719 43.25-149.138 72.2-43.419 121.44-42.604 156.76-37.757 35.31 4.848 91.71-147.887 165.75-134.78s56.66 49.487 103.19 124.899z" stroke="url(#paint13_linear_795_160)" style="mix-blend-mode:overlay" opacity=".814"/><path d="M2018.89-85.859c47.61 74.398 142.54 16.082 122.36 155.731-20.17 139.65-169.81 223.058-265.37 155.644-95.57-67.414-131.96-102.386-168.3-84.727-36.33 17.659-125.54 40.617-154.32-20.365-28.79-60.982-30.5-105.044 41-149.917 71.5-44.873 120.71-45.072 156.07-40.955 35.35 4.117 89.45-149.664 163.62-138.091 74.17 11.572 57.34 48.282 104.94 122.68z" stroke="url(#paint14_linear_795_160)" style="mix-blend-mode:overlay" opacity=".8"/><path d="M2016.47-89.196c48.66 73.362 142.65 13.136 124.56 153.095-18.1 139.96-166.38 226.385-262.86 160.989-96.47-65.396-133.36-99.592-169.4-81.199-36.04 18.393-124.83 43.17-154.49-17.173-29.67-60.343-32.03-104.336 38.75-150.647 70.78-46.311 119.94-47.524 155.33-44.138 35.38 3.387 87.16-151.392 161.44-141.354 74.28 10.037 58.01 47.065 106.67 120.427z" stroke="url(#paint15_linear_795_160)" style="mix-blend-mode:overlay" opacity=".786"/><path d="M2014-92.478c49.7 72.304 142.72 10.19 126.71 150.415-16.01 140.225-162.89 229.636-260.25 166.276-97.36-63.36-134.72-96.772-170.46-77.651-35.74 19.122-124.08 45.707-154.62-13.98-30.53-59.686-33.54-103.597 36.5-151.33 70.03-47.732 119.14-49.956 154.54-47.3 35.41 2.655 84.85-153.071 159.22-144.571 74.37 8.501 58.65 45.836 108.36 118.14z" stroke="url(#paint16_linear_795_160)" style="mix-blend-mode:overlay" opacity=".771"/><path d="M2011.48-95.706c50.73 71.226 142.76 7.244 128.83 147.691-13.92 140.448-159.35 232.813-257.57 171.505-98.22-61.308-136.04-93.925-171.46-74.083-35.43 19.842-123.31 48.226-154.7-10.787-31.38-59.013-35.04-102.828 34.23-151.965s118.3-52.37 153.72-50.445c35.41 1.925 82.51-154.7 156.94-147.736 74.43 6.964 59.28 44.594 110.01 115.82z" stroke="url(#paint17_linear_795_160)" style="mix-blend-mode:overlay" opacity=".757"/><path d="M2008.92-98.878c51.74 70.127 142.75 4.3 130.91 144.926-11.84 140.626-155.78 235.912-254.83 176.673-99.04-59.239-137.31-91.053-172.41-70.497-35.1 20.555-122.49 50.725-154.72-7.596-32.24-58.321-36.54-102.027 31.95-152.552 68.49-50.525 117.43-54.764 152.84-53.57 35.41 1.195 80.16-156.278 154.63-150.851 74.47 5.427 59.89 43.34 111.63 113.467z" stroke="url(#paint18_linear_795_160)" style="mix-blend-mode:overlay" opacity=".743"/><path d="M2006.31-101.996c52.74 69.008 142.69 1.361 132.94 142.12-9.75 140.76-152.16 238.934-252 181.779-99.83-57.155-138.54-88.157-173.31-66.895-34.77 21.262-121.64 53.207-154.7-4.406-33.07-57.612-38.02-101.196 29.67-153.09 67.68-51.895 116.52-57.138 151.92-56.673 35.4.465 77.78-157.806 152.27-153.916 74.49 3.891 60.48 42.074 113.21 111.081z" stroke="url(#paint19_linear_795_160)" style="mix-blend-mode:overlay" opacity=".729"/><path d="M2003.67-105.055c53.71 67.869 142.59-1.576 134.92 139.274-7.66 140.85-148.5 241.877-249.1 186.821-100.59-55.056-139.73-85.237-174.15-63.276-34.43 21.96-120.76 55.667-154.65-1.22s-39.47-100.334 27.38-153.58c66.86-53.247 115.58-59.49 150.96-59.755 35.38-.264 75.39-159.282 149.87-156.928 74.48 2.355 61.06 40.796 114.77 108.664z" stroke="url(#paint20_linear_795_160)" style="mix-blend-mode:overlay" opacity=".714"/><path d="M2000.97-108.054c54.67 66.71 142.45-4.51 136.88 136.387-5.57 140.896-144.81 244.742-246.14 191.799-101.32-52.943-140.87-82.295-174.94-59.643-34.08 22.651-119.83 58.108-154.54 1.963-34.7-56.145-40.92-99.443 25.09-154.023 66.02-54.58 114.61-61.821 149.95-62.813 35.35-.992 72.97-160.708 147.43-159.888 74.45.82 61.61 39.508 116.27 106.218z" stroke="url(#paint21_linear_795_160)" style="mix-blend-mode:overlay" opacity=".7"/><path d="M1998.24-110.998c55.61 65.532 142.27-7.437 138.78 133.462-3.49 140.899-141.07 247.526-243.1 196.71-102.02-50.816-141.97-79.331-175.68-55.996-33.71 23.335-118.87 60.527-154.38 5.141-35.51-55.386-42.37-98.522 22.79-154.416 65.16-55.895 113.6-64.13 148.9-65.848 35.3-1.718 70.53-162.081 144.94-162.794 74.41-.712 62.14 38.209 117.75 103.741z" stroke="url(#paint22_linear_795_160)" style="mix-blend-mode:overlay" opacity=".686"/><path d="M1995.47-113.88c56.53 64.335 142.04-10.357 140.64 130.5-1.4 140.858-137.3 250.23-239.99 201.554-102.7-48.676-143.04-76.346-176.37-52.337-33.34 24.01-117.89 62.925-154.18 8.314-36.3-54.612-43.79-97.572 20.49-154.762 64.27-57.19 112.55-66.416 147.8-68.859 35.25-2.443 68.08-163.402 142.42-165.645 74.34-2.242 62.65 36.899 119.19 101.235z" stroke="url(#paint23_linear_795_160)" style="mix-blend-mode:overlay" opacity=".671"/><path d="M1992.65-116.701c57.44 63.12 141.77-13.27 142.46 127.502.68 140.773-133.49 252.853-236.82 206.328-103.33-46.524-144.04-73.342-177-48.666-32.96 24.676-116.85 65.299-153.93 11.479-37.08-53.821-45.19-96.592 18.19-155.059 63.37-58.466 111.48-68.677 146.66-71.843 35.18-3.166 65.61-164.671 139.85-168.441 74.25-3.771 63.15 35.58 120.59 98.7z" stroke="url(#paint24_linear_795_160)" style="mix-blend-mode:overlay" opacity=".657"/><path d="M1989.8-119.463c58.33 61.887 141.46-16.177 144.23 124.467 2.76 140.644-129.64 255.393-233.58 211.032-103.93-44.36-145.01-70.319-177.58-44.985-32.56 25.334-115.79 67.65-153.63 14.636-37.84-53.014-46.59-95.584 15.88-155.306 62.46-59.723 110.37-70.915 145.48-74.803 35.11-3.887 63.12-165.887 137.25-171.181 74.13-5.295 63.63 34.252 121.95 96.14z" stroke="url(#paint25_linear_795_160)" style="mix-blend-mode:overlay" opacity=".643"/><path d="M1986.91-122.16c59.2 60.637 141.11-19.073 145.95 121.399 4.84 140.472-125.76 257.85-230.27 215.664-104.51-42.186-145.93-67.278-178.1-41.295-32.16 25.983-114.7 69.976-153.3 17.785-38.59-52.192-47.96-94.547 13.57-155.506 61.53-60.96 109.24-73.128 144.27-77.734 35.02-4.607 60.61-167.05 134.61-173.865 73.99-6.815 64.08 32.915 123.27 93.552z" stroke="url(#paint26_linear_795_160)" style="mix-blend-mode:overlay" opacity=".629"/><path d="M1983.99-124.797c60.04 59.369 140.71-21.961 147.62 118.295 6.92 140.257-121.84 260.225-226.89 220.224-105.05-40.001-146.82-64.22-178.57-37.597-31.76 26.624-113.58 72.279-152.92 20.924-39.33-51.355-49.32-93.482 11.26-155.657 60.58-62.174 108.08-75.314 143-80.637 34.93-5.324 58.1-168.159 131.93-176.491 73.84-8.332 64.52 31.57 124.57 90.939z" stroke="url(#paint27_linear_795_160)" style="mix-blend-mode:overlay" opacity=".614"/><path d="M1981.02-127.37c60.88 58.084 140.28-24.838 149.27 115.16 8.98 139.997-117.91 262.515-223.47 224.709-105.56-37.807-147.65-61.147-178.98-33.892-31.34 27.254-112.42 74.555-152.49 24.052-40.06-50.503-50.66-92.39 8.95-155.759 59.62-63.369 106.88-77.475 141.7-83.512 34.82-6.038 55.57-169.215 129.22-179.058 73.65-9.844 64.93 30.216 125.8 88.3z" stroke="url(#paint28_linear_795_160)" style="mix-blend-mode:overlay" opacity=".6"/><path d="M1978.02-129.878c61.69 56.783 139.81-27.703 150.85 111.993 11.05 139.695-113.93 264.721-219.96 229.118-106.04-35.603-148.44-58.057-179.35-30.181-30.91 27.877-111.23 76.805-152.01 27.169-40.78-49.636-51.99-91.27 6.64-155.812 58.63-64.543 105.65-79.61 140.35-86.358 34.7-6.749 53.02-170.216 126.47-181.567 73.45-11.351 65.33 28.855 127.01 85.638z" stroke="url(#paint29_linear_795_160)" style="mix-blend-mode:overlay" opacity=".586"/><path d="M1974.99-132.321c62.48 55.466 139.29-30.557 152.39 108.794 13.1 139.35-109.93 266.842-216.41 233.451-106.48-33.392-149.18-54.955-179.65-26.466-30.47 28.489-110.01 79.029-151.49 30.274-41.48-48.755-53.3-90.123 4.33-155.818 57.63-65.694 104.39-81.716 138.97-89.172 34.57-7.457 50.46-171.164 123.68-184.016 73.22-12.853 65.71 27.486 128.18 82.953z" stroke="url(#paint30_linear_795_160)" style="mix-blend-mode:overlay" opacity=".571"/><path d="M1971.93-134.698c63.25 54.134 138.72-33.396 153.87 105.567 15.16 138.962-105.89 268.877-212.78 237.705-106.89-31.172-149.88-51.838-179.91-22.746-30.03 29.091-108.75 81.225-150.92 33.365-42.17-47.861-54.59-88.95 2.02-155.775 56.62-66.824 103.1-83.794 137.54-91.956 34.44-8.162 47.9-172.057 120.87-186.405 72.98-14.348 66.06 26.112 129.31 80.245z" stroke="url(#paint31_linear_795_160)" style="mix-blend-mode:overlay" opacity=".557"/><path d="M1968.83-137.011c64 52.786 138.13-36.222 155.32 102.31 17.19 138.532-101.84 270.827-209.11 241.881-107.27-28.946-150.53-48.709-180.1-19.025-29.58 29.685-107.47 83.394-150.32 36.442-42.84-46.951-55.86-87.75-.28-155.683 55.59-67.932 101.78-85.844 136.08-94.708 34.29-8.863 45.31-172.894 118.02-188.732 72.7-15.837 66.39 24.73 130.39 77.515z" stroke="url(#paint32_linear_795_160)" style="mix-blend-mode:overlay" opacity=".543"/><path d="M1965.7-139.256c64.74 51.423 137.49-39.034 156.72 99.025 19.22 138.059-97.77 272.69-205.38 245.976s-151.13-45.57-180.25-15.302c-29.11 30.268-106.15 85.534-149.66 39.504-43.5-46.029-57.11-86.525-2.58-155.543 54.54-69.018 100.44-87.865 134.57-97.427 34.14-9.562 42.73-173.678 115.14-190.999 72.42-17.32 66.71 23.342 131.44 74.766z" stroke="url(#paint33_linear_795_160)" style="mix-blend-mode:overlay" opacity=".529"/><path d="M1962.55-141.434c65.44 50.047 136.8-41.829 158.05 95.715 21.26 137.543-93.65 274.465-201.58 249.99-107.93-24.476-151.69-42.42-180.34-11.58-28.64 30.841-104.81 87.645-148.96 42.551-44.15-45.095-58.35-85.276-4.87-155.356 53.47-70.08 99.05-89.856 133.02-100.112 33.97-10.256 40.13-174.407 112.23-193.203 72.11-18.795 67.01 21.949 132.45 71.995z" stroke="url(#paint34_linear_795_160)" style="mix-blend-mode:overlay" opacity=".514"/><path d="M1959.36-143.544c66.13 48.656 136.08-44.608 159.35 92.378 23.27 136.986-89.53 276.154-197.74 253.921-108.2-22.233-152.2-39.261-180.37-7.857-28.16 31.403-103.43 89.725-148.22 45.579-44.78-44.146-59.57-84-7.17-155.12s97.66-91.816 131.45-102.762c33.79-10.947 37.52-175.081 109.29-195.345 71.78-20.263 67.28 20.551 133.41 69.206z" stroke="url(#paint35_linear_795_160)" style="mix-blend-mode:overlay" opacity=".5"/><path d="M1956.15-145.584c66.8 47.252 135.32-47.37 160.59 89.016 25.28 136.387-85.38 277.755-193.83 257.769-108.46-19.986-152.68-36.093-180.36-4.137-27.68 31.955-102.03 91.776-147.43 48.59-45.41-43.185-60.77-82.699-9.46-154.836 51.31-72.136 96.23-93.746 129.83-105.378 33.6-11.632 34.91-175.7 106.33-197.423 71.42-21.723 67.53 19.148 134.33 66.399z" stroke="url(#paint36_linear_795_160)" style="mix-blend-mode:overlay" opacity=".486"/><path d="M1952.91-147.558c67.45 45.834 134.51-50.115 161.79 85.63 27.27 135.747-81.22 279.268-189.89 261.533-108.67-17.736-153.09-32.918-180.28-.421-27.18 32.498-100.6 93.796-146.6 51.583-46.01-42.212-61.95-81.375-11.74-154.504 50.2-73.129 94.77-95.644 128.17-107.958 33.41-12.314 32.29-176.263 103.33-199.438 71.05-23.174 67.77 17.74 135.22 63.575z" stroke="url(#paint37_linear_795_160)" style="mix-blend-mode:overlay" opacity=".471"/><path d="M1949.64-149.46c68.08 44.405 133.68-52.84 162.94 82.223 29.25 135.064-77.04 280.691-185.89 265.209-108.85-15.482-153.46-29.736-180.15 3.292-26.69 33.029-99.14 95.784-145.73 54.556-46.6-41.227-63.1-80.028-14.01-154.125 49.08-74.098 93.28-97.51 126.48-110.501s29.66-176.772 100.31-201.388c70.65-24.617 67.97 16.329 136.05 60.734z" stroke="url(#paint38_linear_795_160)" style="mix-blend-mode:overlay" opacity=".457"/><path d="M1946.35-151.294c68.68 42.963 132.8-55.546 164.03 78.794 31.23 134.34-72.83 282.026-181.83 268.8-109-13.227-153.79-26.549-179.97 6.999-26.18 33.548-97.65 97.739-144.82 57.508-47.18-40.231-64.24-78.656-16.28-153.699 47.96-75.042 91.78-99.344 124.76-113.007 32.98-13.663 27.02-177.224 97.26-203.273 70.23-26.05 68.17 14.914 136.85 57.878z" stroke="url(#paint39_linear_795_160)" style="mix-blend-mode:overlay" opacity=".443"/><path d="M1943.03-153.057c69.27 41.51 131.88-58.231 165.08 75.345 33.19 133.576-68.61 283.272-177.73 272.303-109.11-10.97-154.07-23.358-179.73 10.7-25.67 34.057-96.14 99.663-143.87 60.439-47.74-39.223-65.35-77.263-18.54-153.225 46.82-75.963 90.25-101.146 123-115.476 32.76-14.33 24.39-177.62 94.19-205.093 69.8-27.473 68.34 13.497 137.6 55.007z" stroke="url(#paint40_linear_795_160)" style="mix-blend-mode:overlay" opacity=".429"/><path d="M1939.69-154.75c69.83 40.045 130.93-60.895 166.07 71.876 35.14 132.771-64.38 284.43-173.57 275.718-109.2-8.712-154.31-20.163-179.45 14.393-25.14 34.555-94.6 101.553-142.87 63.348-48.28-38.204-66.44-75.847-20.78-152.705 45.65-76.858 88.68-102.913 121.2-117.904 32.52-14.992 21.75-177.963 91.09-206.849 69.34-28.886 68.49 12.077 138.31 52.123z" stroke="url(#paint41_linear_795_160)" style="mix-blend-mode:overlay" opacity=".414"/><path d="M1936.33-156.372c70.37 38.571 129.94-63.537 167.01 68.39 37.08 131.926-60.13 285.496-169.38 279.043-109.25-6.454-154.49-16.965-179.1 18.076-24.62 35.042-93.03 103.41-141.84 66.235-48.8-37.175-67.51-74.409-23.02-152.138 44.49-77.728 87.1-104.646 119.38-120.294 32.28-15.649 19.1-178.249 87.97-208.537 68.87-30.288 68.61 10.655 138.98 49.225z" stroke="url(#paint42_linear_795_160)" style="mix-blend-mode:overlay" opacity=".4"/><path d="M1932.95-157.921c70.89 37.084 128.9-66.157 167.9 64.885 39 131.041-55.88 286.474-165.14 282.278-109.26-4.197-154.63-13.766-178.71 21.751-24.08 35.517-91.43 105.232-140.75 69.097-49.32-36.135-68.56-72.95-25.25-151.524S1676.49 22.22 1708.51 5.921c32.03-16.299 16.46-178.479 84.83-210.158 68.37-31.68 68.73 9.231 139.61 46.316z" stroke="url(#paint43_linear_795_160)" style="mix-blend-mode:overlay" opacity=".386"/><path d="M1929.56-159.399c71.38 35.589 127.83-68.753 168.73 61.364 40.9 130.117-51.61 287.363-160.85 285.422-109.25-1.94-154.72-10.566-178.26 25.415-23.54 35.981-89.82 107.02-139.64 71.935-49.82-35.086-69.59-71.47-27.47-150.864 42.12-79.395 83.87-108.01 115.63-124.954 31.76-16.945 13.81-178.654 81.66-211.714 67.86-33.06 68.81 7.806 140.2 43.396z" stroke="url(#paint44_linear_795_160)" style="mix-blend-mode:overlay" opacity=".371"/><path d="M1926.14-160.804c71.86 34.084 126.72-71.325 169.52 57.829 42.79 129.153-47.34 288.161-156.53 288.474-109.2.313-154.77-7.367-177.76 29.066-22.99 36.433-88.18 108.773-138.47 74.747-50.3-34.026-70.6-69.969-29.68-150.158 40.92-80.19 82.21-109.64 113.7-127.222 31.49-17.584 11.16-178.774 78.48-213.202 67.32-34.428 68.88 6.381 140.74 40.466z" stroke="url(#paint45_linear_795_160)" style="mix-blend-mode:overlay" opacity=".357"/><path d="M1922.7-162.138c72.31 32.572 125.59-73.871 170.25 54.28 44.67 128.151-43.04 288.869-152.16 291.434-109.12 2.564-154.76-4.169-177.2 32.704-22.44 36.873-86.51 110.49-137.28 77.533-50.76-32.957-71.57-68.448-31.86-149.407 39.7-80.959 80.53-111.232 111.73-129.448 31.21-18.217 8.53-178.837 75.29-214.622 66.76-35.784 68.92 4.955 141.23 37.526z" stroke="url(#paint46_linear_795_160)" style="mix-blend-mode:overlay" opacity=".343"/><path d="M1919.25-163.398c72.74 31.049 124.41-76.393 170.93 50.717 46.53 127.11-38.76 289.487-147.76 294.3-109 4.813-154.71-.973-176.59 36.329-21.88 37.301-84.82 112.17-136.04 80.291-51.21-31.879-72.53-66.908-34.05-148.61 38.49-81.702 78.84-112.789 109.76-131.632 30.91-18.843 5.87-178.845 72.06-215.973 66.19-37.128 68.95 3.528 141.69 34.578z" stroke="url(#paint47_linear_795_160)" style="mix-blend-mode:overlay" opacity=".329"/><path d="M1915.78-164.585c73.15 29.519 123.2-78.887 171.56 47.143 48.37 126.031-34.46 290.015-143.31 297.072-108.86 7.057-154.63 2.22-175.94 39.937-21.31 37.718-83.1 113.815-134.75 83.023-51.65-30.793-73.47-65.349-36.22-147.768 37.25-82.42 77.12-114.31 107.73-133.772 30.62-19.463 3.24-178.799 68.83-217.258 65.6-38.458 68.96 2.103 142.1 31.623z" stroke="url(#paint48_linear_795_160)" style="mix-blend-mode:overlay" opacity=".314"/><path d="M1912.3-165.701c73.53 27.982 121.95-81.355 172.14 43.559 50.19 124.914-30.17 290.452-138.84 299.748-108.67 9.297-154.48 5.409-175.23 43.531-20.74 38.122-81.36 115.422-133.43 85.724-52.07-29.698-74.38-63.771-38.37-146.881s75.38-115.793 105.69-135.869c30.3-20.076.59-178.697 65.58-218.473 64.98-39.775 68.93.678 142.46 28.661z" stroke="url(#paint49_linear_795_160)" style="mix-blend-mode:overlay" opacity=".3"/><path d="M1908.81-166.74c73.89 26.438 120.66-83.795 172.66 39.965 51.99 123.76-25.86 290.799-134.33 302.329-108.46 11.531-154.29 8.592-174.46 47.106-20.17 38.514-79.61 116.992-132.08 88.397-52.47-28.595-75.27-62.175-40.51-145.95 34.77-83.775 73.62-117.239 103.61-137.921 29.99-20.683-2.03-178.54 62.32-219.619 64.35-41.079 68.89-.746 142.79 25.693z" stroke="url(#paint50_linear_795_160)" style="mix-blend-mode:overlay" opacity=".286"/><path d="M1905.3-167.706c74.23 24.888 119.35-86.205 173.13 36.363 53.79 122.568-21.56 291.056-129.78 304.815-108.21 13.759-154.06 11.769-173.64 50.662-19.59 38.894-77.84 118.525-130.69 91.04-52.86-27.484-76.14-60.562-42.63-144.974 33.5-84.413 71.84-118.647 101.51-139.93 29.66-21.282-4.67-178.328 59.03-220.696 63.7-42.369 68.84-2.167 143.07 22.72z" stroke="url(#paint51_linear_795_160)" style="mix-blend-mode:overlay" opacity=".271"/><path d="M1901.79-168.599c74.54 23.331 117.99-88.588 173.54 32.753 55.56 121.34-17.26 291.223-125.2 307.203-107.94 15.981-153.78 14.939-172.78 54.2s-76.03 120.018-129.25 93.652c-53.23-26.367-76.98-58.932-44.74-143.956 32.24-85.024 70.04-120.017 99.38-141.892 29.33-21.874-7.29-178.061 55.74-221.705 63.03-43.643 68.76-3.586 143.31 19.745z" stroke="url(#paint52_linear_795_160)" style="mix-blend-mode:overlay" opacity=".257"/><path d="M1898.26-169.418c74.84 21.769 116.61-90.94 173.91 29.137 57.3 120.076-12.96 291.3-120.59 309.494-107.63 18.195-153.46 18.101-171.87 57.717-18.4 39.616-74.21 121.473-127.79 96.231-53.57-25.242-77.79-57.285-46.82-142.893 30.96-85.609 68.23-121.35 97.22-143.809 28.99-22.459-9.91-177.739 52.44-222.643 62.35-44.903 68.66-5.003 143.5 16.766z" stroke="url(#paint53_linear_795_160)" style="mix-blend-mode:overlay" opacity=".243"/><path d="M1894.72-170.163c75.11 20.202 115.19-93.261 174.22 25.516 59.03 118.777-8.66 291.287-115.95 311.688-107.29 20.4-153.08 21.254-170.9 61.212-17.81 39.958-72.37 122.89-126.28 98.779-53.91-24.111-78.58-55.623-48.9-141.789 29.69-86.165 66.4-122.641 95.04-145.678 28.64-23.037-12.52-177.364 49.13-223.512 61.64-46.149 68.53-6.417 143.64 13.784z" stroke="url(#paint54_linear_795_160)" style="mix-blend-mode:overlay" opacity=".229"/><path d="M1891.18-170.831c75.36 18.63 113.74-95.552 174.48 21.89 60.74 117.442-4.37 291.185-111.28 313.783-106.92 22.599-152.67 24.398-169.89 64.685-17.21 40.287-70.51 124.267-124.74 101.293-54.23-22.973-79.35-53.945-50.95-140.64 28.39-86.696 64.54-123.896 92.83-147.502 28.28-23.606-15.12-176.934 45.8-224.312 60.92-47.377 68.4-7.827 143.75 10.803z" stroke="url(#paint55_linear_795_160)" style="mix-blend-mode:overlay" opacity=".214"/><path d="M1887.63-171.428c75.58 17.054 112.26-97.81 174.68 18.263 62.43 116.072-.07 290.992-106.59 315.779-106.51 24.786-152.2 27.53-168.81 68.134-16.61 40.604-68.64 125.604-123.17 103.774s-80.09-52.253-52.99-139.452c27.1-87.198 62.68-125.109 90.6-149.277 27.91-24.168-17.71-176.45 42.47-225.041 60.18-48.591 68.23-9.234 143.81 7.82z" stroke="url(#paint56_linear_795_160)" style="mix-blend-mode:overlay" opacity=".2"/><path d="M1884.08-171.948c75.78 15.475 110.74-100.036 174.83 14.632 64.09 114.67 4.2 290.711-101.87 317.677-106.08 26.965-151.7 30.65-167.7 71.558-16 40.908-66.75 126.901-121.56 106.22-54.82-20.681-80.8-50.546-55.01-138.22 25.8-87.674 60.8-126.284 88.34-151.005 27.54-24.722-20.29-175.912 39.14-225.701 59.43-49.788 68.05-10.635 143.83 4.839z" stroke="url(#paint57_linear_795_160)" style="mix-blend-mode:overlay" opacity=".186"/><path d="M1880.52-172.396c75.96 13.892 109.2-102.23 174.93 11.001 65.74 113.232 8.47 290.341-97.13 319.474-105.61 29.133-151.15 33.758-166.54 74.957-15.38 41.199-64.83 128.158-119.91 108.631-55.09-19.527-81.49-48.825-57-136.947 24.49-88.122 58.9-127.418 86.06-152.686 27.15-25.267-22.87-175.32 35.79-226.289 58.65-50.969 67.85-12.033 143.8 1.859z" stroke="url(#paint58_linear_795_160)" style="mix-blend-mode:overlay" opacity=".171"/><path d="M1876.96-172.758c76.11 12.307 107.62-104.389 174.97 7.371 67.36 111.76 12.74 289.881-92.37 321.17-105.11 31.29-150.55 36.854-165.32 78.33-14.77 41.477-62.91 129.374-118.24 111.006-55.33-18.368-82.15-47.091-58.97-135.634 23.18-88.542 56.99-128.512 83.75-154.317 26.77-25.804-25.43-174.675 32.44-226.808 57.87-52.133 67.63-13.425 143.74-1.118z" stroke="url(#paint59_linear_795_160)" style="mix-blend-mode:overlay" opacity=".157"/><path d="M1873.4-173.055c76.24 10.719 106.01-106.514 174.96 3.742 68.95 110.257 16.99 289.333-87.59 322.767-104.58 33.435-149.91 39.933-164.06 81.675-14.15 41.742-60.96 130.549-116.53 113.344-55.56-17.205-82.79-45.344-60.92-134.28 21.86-88.936 55.06-129.566 81.43-155.899 26.37-26.333-27.98-173.978 29.08-227.257 57.07-53.279 67.39-14.812 143.63-4.092z" stroke="url(#paint60_linear_795_160)" style="mix-blend-mode:overlay" opacity=".143"/><path d="M1869.83-173.278c76.35 9.131 104.38-108.604 174.91.117 70.52 108.72 21.22 288.696-82.79 324.263-104.02 35.566-149.22 42.997-162.75 84.991-13.53 41.994-59.01 131.683-114.79 115.645-55.78-16.038-83.4-43.586-62.86-132.887 20.55-89.3 53.12-130.578 79.09-157.431 25.97-26.853-30.52-173.228 25.73-227.636 56.24-54.408 67.12-16.192 143.46-7.062z" stroke="url(#paint61_linear_795_160)" style="mix-blend-mode:overlay" opacity=".129"/><path d="M1866.27-173.427c76.43 7.54 102.71-110.659 174.79-3.506 72.07 107.153 25.45 287.972-77.97 325.658-103.43 37.686-148.49 46.045-161.4 88.278-12.9 42.233-57.03 132.775-113.01 117.908-55.98-14.867-83.98-41.816-64.77-131.454 19.22-89.638 51.17-131.55 76.73-158.914C1726.19 37.18 1667.6-107.88 1723-163.4c55.41-55.519 66.84-17.566 143.27-10.026z" stroke="url(#paint62_linear_795_160)" style="mix-blend-mode:overlay" opacity=".114"/><path d="M1862.71-173.501c76.49 5.95 101.02-112.677 174.62-7.123 73.6 105.553 29.66 287.16-73.14 326.951s-147.72 49.076-159.99 91.535c-12.27 42.458-55.05 133.825-111.2 120.133-56.16-13.693-84.55-40.035-66.66-129.983 17.89-89.947 49.2-132.48 74.34-160.346 25.13-27.867-35.55-171.57 19-228.182 54.55-56.613 66.54-18.934 143.03-12.985z" stroke="url(#paint63_linear_795_160)" style="mix-blend-mode:overlay" opacity=".1"/><path d="M1859.15-173.501c76.52 4.358 99.3-114.659 174.4-10.736 75.1 103.924 33.86 286.262-68.3 328.144-102.15 41.882-146.89 52.089-158.53 94.759-11.65 42.671-53.05 134.834-109.37 122.319-56.33-12.515-85.08-38.243-68.52-128.472 16.56-90.23 47.22-133.368 71.93-161.728 24.71-28.36-38.04-170.664 15.65-228.351 53.68-57.687 66.21-20.294 142.74-15.935z" stroke="url(#paint64_linear_795_160)" style="mix-blend-mode:overlay" opacity=".086"/><path d="M1855.59-173.428c76.54 2.768 97.55-116.604 174.13-14.34 76.57 102.264 38.03 285.276-63.44 329.234-101.46 43.959-146.03 55.082-157.04 97.952-11.01 42.87-51.03 135.8-107.5 124.465-56.47-11.335-85.58-36.441-70.36-126.925 15.22-90.483 45.24-134.214 69.52-163.059 24.27-28.844-40.53-169.705 12.28-228.448 52.8-58.743 65.87-21.647 142.41-18.879z" stroke="url(#paint65_linear_795_160)" style="mix-blend-mode:overlay" opacity=".071"/><path d="M1852.04-173.279c76.53 1.178 95.77-118.511 173.8-17.937 78.03 100.575 42.2 284.204-58.56 330.223-100.76 46.019-145.13 58.056-155.5 101.111-10.38 43.055-49.01 136.723-105.61 126.57-56.6-10.152-86.05-34.63-72.17-125.339 13.88-90.709 43.24-135.02 67.08-164.339 23.83-29.319-42.99-168.697 8.92-228.476 51.91-59.779 65.51-22.991 142.04-21.813z" stroke="url(#paint66_linear_795_160)" style="mix-blend-mode:overlay" opacity=".057"/><path d="M1848.49-173.058c76.5-.411 93.98-120.38 173.43-21.525 79.44 98.856 46.33 283.046-53.68 331.109-100.02 48.064-144.19 61.009-153.92 104.237-9.74 43.228-46.97 137.604-103.68 128.635-56.71-8.968-86.51-32.811-73.96-123.717 12.54-90.907 41.23-135.783 64.62-165.567 23.39-29.785-45.43-167.638 5.57-228.434 50.99-60.797 65.13-24.328 141.62-24.738z" stroke="url(#paint67_linear_795_160)" style="mix-blend-mode:overlay" opacity=".043"/><path d="M1844.96-172.762c76.42-1.998 92.12-122.211 172.95-25.102 80.82 97.108 50.44 281.802-48.78 331.893-99.22 50.091-143.16 63.941-152.25 107.327-9.09 43.387-44.91 138.442-101.7 130.659-56.79-7.783-86.91-30.983-75.71-122.059 11.2-91.077 39.2-136.503 62.14-166.743 22.93-30.24-47.85-166.528 2.21-228.322 50.06-61.795 64.72-25.655 141.14-27.653z" stroke="url(#paint68_linear_795_160)" style="mix-blend-mode:overlay" opacity=".029"/><path d="M1841.42-172.454c76.37-3.583 90.31-124.033 172.53-28.675s54.56 280.546-43.9 332.66c-98.45 52.114-142.17 66.865-150.63 110.408-8.45 43.543-42.86 139.271-99.75 132.673-56.89-6.597-87.34-29.155-77.47-120.396 9.86-91.242 37.19-137.215 59.67-167.91 22.48-30.694-50.27-165.41-1.13-228.197 49.13-62.788 64.32-26.98 140.68-30.563z" stroke="url(#paint69_linear_795_160)" style="mix-blend-mode:overlay" opacity=".014"/></g><g style="mix-blend-mode:screen"><path d="M247.094-76.685C286.23 5.366 386.767-33.953 351.556 99.361 316.345 232.673 158.805 286.293 71.322 202.034-16.162 117.776-48.47 76.556-86.438 87.029-124.41 97.5-215.416 103.184-237.345 37.862c-21.929-65.321-18.834-108.91 56.992-139.458 75.825-30.548 124.672-21.443 159.301-10.718 34.63 10.725 105.03-130.055 177.365-104.671 72.335 25.383 51.644 58.249 90.78 140.3z" stroke="url(#paint70_linear_795_160)" style="mix-blend-mode:overlay"/><path d="M245.046-80.437C285.341.8 385.146-40.582 351.962 93.44 318.779 227.462 162.267 284.313 73.664 201.863-14.939 119.412-47.809 78.862-85.567 90.113c-37.759 11.253-128.546 18.805-151.41-46.058-22.865-64.863-20.421-108.511 54.84-140.614 75.261-32.102 124.17-24.003 158.907-13.991 34.738 10.012 102.947-132.198 175.551-108.305 72.604 23.893 52.431 57.181 92.725 138.418z" stroke="url(#paint71_linear_795_160)" style="mix-blend-mode:overlay" opacity=".986"/><path d="M242.948-84.147c41.439 80.399 140.483 36.97 109.335 171.659C321.135 222.199 165.697 282.26 76.003 201.64-13.692 121.022-47.114 81.151-84.65 93.178c-37.536 12.027-128.077 21.444-151.87-42.941-23.792-64.385-21.998-108.078 52.676-141.724 74.674-33.645 123.63-26.552 158.465-17.256C9.456-99.446 75.457-243.041 148.308-220.642c72.851 22.398 53.201 56.096 94.64 136.495z" stroke="url(#paint72_linear_795_160)" style="mix-blend-mode:overlay" opacity=".971"/><path d="M240.796-87.811c42.57 79.537 140.825 34.08 111.719 169.39C323.41 216.889 169.09 280.137 78.333 201.37-12.424 122.605-46.389 83.427-83.69 96.223c-37.302 12.796-127.571 24.073-152.282-39.815-24.713-63.888-23.57-107.612 50.495-142.788 74.066-35.176 123.056-29.089 157.977-20.51 34.92 8.58 98.697-136.353 171.772-115.455 73.076 20.899 53.955 54.996 96.524 134.534z" stroke="url(#paint73_linear_795_160)" style="mix-blend-mode:overlay" opacity=".957"/><path d="M238.595-91.427c43.686 78.652 141.123 31.182 114.066 167.072-27.056 135.891-180.212 202.301-272.004 125.41C-11.134 124.164-45.63 85.689-82.688 99.25c-37.058 13.561-127.027 26.691-152.649-36.68-25.623-63.373-25.13-107.115 48.305-143.808 73.436-36.693 122.444-31.614 157.441-23.753C5.406-97.13 66.94-243.354 140.218-223.959c73.278 19.394 54.69 53.88 98.377 132.532z" stroke="url(#paint74_linear_795_160)" style="mix-blend-mode:overlay" opacity=".943"/><path d="M236.342-95.001c44.789 77.744 141.379 28.278 116.377 164.706-25.002 136.428-176.948 205.975-269.746 130.98C-9.825 125.691-44.84 87.929-81.643 102.25c-36.803 14.32-126.445 29.297-152.97-33.54-26.525-62.837-26.681-106.583 46.103-144.78 72.784-38.196 121.795-34.125 156.858-26.984 35.062 7.141 94.337-140.327 167.796-122.44 73.459 17.886 55.409 52.749 100.198 130.493z" stroke="url(#paint75_linear_795_160)" style="mix-blend-mode:overlay" opacity=".929"/><path d="M234.041-98.524c45.877 76.813 141.592 25.37 118.65 162.293-22.942 136.922-173.636 209.58-267.41 136.502C-8.494 127.193-44.02 90.156-80.555 105.23c-36.536 15.075-125.826 31.89-153.244-30.393-27.418-62.284-28.223-106.02 43.888-145.706 72.112-39.686 121.112-36.622 156.23-30.202 35.117 6.42 92.118-142.245 165.735-125.87 73.617 16.375 56.111 51.604 101.987 128.417z" stroke="url(#paint76_linear_795_160)" style="mix-blend-mode:overlay" opacity=".914"/><path d="M231.695-101.998c46.949 75.86 141.762 22.459 120.884 159.832S182.305 270.949 87.583 199.807C-7.14 128.666-43.162 92.364-79.421 108.186c-36.26 15.823-125.171 34.469-153.473-27.242-28.301-61.71-29.754-105.424 41.664-146.585 71.417-41.161 120.392-39.104 155.553-33.406C-.515-93.35 54.198-243.163 127.951-228.302c73.753 14.861 56.795 50.444 103.744 126.304z" stroke="url(#paint77_linear_795_160)" style="mix-blend-mode:overlay" opacity=".9"/><path d="M229.294-105.423c48.007 74.884 141.891 19.545 123.081 157.326-18.81 137.781-166.867 216.579-262.507 147.393C-5.772 130.11-42.28 94.553-78.252 111.118c-35.973 16.565-124.478 37.034-153.654-24.086-29.177-61.121-31.275-104.798 39.428-147.42 70.704-42.62 119.638-41.569 154.833-36.594C-2.45-92.007 49.96-242.92 123.828-229.577c73.866 13.344 57.46 49.27 105.466 124.154z" stroke="url(#paint78_linear_795_160)" style="mix-blend-mode:overlay" opacity=".886"/><path d="M226.851-108.793c49.048 73.887 141.975 16.63 125.236 154.775-16.738 138.145-163.412 219.97-259.94 152.759C-4.38 131.529-41.364 96.728-77.039 114.028c-35.675 17.301-123.748 39.584-153.789-20.928-30.041-60.512-32.784-104.139 37.185-148.205C-123.674-99.17-74.795-99.124-39.577-94.873-4.36-90.62 45.737-242.587 119.695-230.762c73.957 11.826 58.108 48.083 107.156 121.969z" stroke="url(#paint79_linear_795_160)" style="mix-blend-mode:overlay" opacity=".871"/><path d="M224.362-112.114c50.074 72.867 142.017 13.711 127.352 152.178-14.665 138.466-159.913 223.288-257.299 158.07C-2.97 132.915-40.417 98.878-75.784 116.908c-35.367 18.03-122.982 42.118-153.878-17.767-30.895-59.886-34.282-103.45 34.932-148.944C-125.515-95.3-76.706-96.255-41.476-92.727c35.23 3.528 83-149.442 157.027-139.137 74.026 10.305 58.738 46.882 108.811 119.75z" stroke="url(#paint80_linear_795_160)" style="mix-blend-mode:overlay" opacity=".857"/><path d="M221.827-115.383c51.082 71.827 142.016 10.794 129.427 149.538C338.665 172.9 194.884 260.69 96.67 197.48s-136.112-96.471-171.16-77.718c-35.049 18.753-122.181 44.635-153.921-14.606C-260.15 45.915-264.179 2.428-195.739-44.48c68.44-46.909 117.165-48.867 152.397-46.063 35.232 2.804 80.664-151.12 154.737-142.336 74.073 8.784 59.349 45.668 110.432 117.496z" stroke="url(#paint81_linear_795_160)" style="mix-blend-mode:overlay" opacity=".843"/><path d="M219.25-118.599c52.076 70.766 141.974 7.877 131.461 146.855C340.199 167.234 197.926 257.96 98.915 196.778-.096 135.596-38.433 103.117-73.153 122.586c-34.72 19.469-121.343 47.135-153.917-11.444-32.573-58.58-37.241-101.976 30.405-150.28C-129.019-87.445-80.393-90.403-45.17-88.322c35.223 2.08 78.306-152.749 152.403-145.487 74.097 7.262 59.942 44.442 112.017 115.209z" stroke="url(#paint82_linear_795_160)" style="mix-blend-mode:overlay" opacity=".829"/><path d="M216.627-121.758c53.051 69.685 141.888 4.962 133.453 144.131-8.435 139.169-149.158 232.797-248.936 173.659C1.366 136.893-37.398 105.207-71.78 125.385c-34.381 20.178-120.47 49.616-153.867-8.284-33.396-57.9-38.701-101.193 28.131-150.877 66.833-49.684 115.346-53.64 150.55-52.282 35.203 1.357 75.927-154.329 150.026-148.589 74.099 5.74 60.516 43.204 113.567 112.889z" stroke="url(#paint83_linear_795_160)" style="mix-blend-mode:overlay" opacity=".814"/><path d="M213.962-124.864c54.01 68.583 141.76 2.05 135.402 141.366-6.357 139.316-145.491 235.815-246.005 178.734-100.513-57.08-139.693-87.965-173.726-67.085-34.033 20.88-119.563 52.08-153.771-5.125-34.208-57.204-40.148-100.38 25.852-151.426 66-51.047 114.385-55.997 149.559-55.362 35.174.635 73.529-155.858 147.608-151.64 74.079 4.219 61.071 41.954 115.081 110.538z" stroke="url(#paint84_linear_795_160)" style="mix-blend-mode:overlay" opacity=".8"/><path d="M211.256-127.912c54.951 67.462 141.589-.859 137.308 138.56-4.281 139.42-141.785 238.756-243.003 183.749C4.342 139.39-35.24 109.315-68.915 130.889c-33.675 21.574-118.621 54.523-153.629-1.968-35.009-56.492-41.581-99.537 23.568-151.928 65.148-52.391 113.392-58.333 148.525-58.42 35.133-.088 71.112-157.338 145.148-154.64 74.037 2.698 61.607 40.693 116.559 108.155z" stroke="url(#paint85_linear_795_160)" style="mix-blend-mode:overlay" opacity=".786"/><path d="M208.506-130.901c55.875 66.321 141.377-3.764 139.171 135.716-2.206 139.48-138.041 241.617-239.933 188.698C5.852 140.594-34.121 111.337-67.428 133.598c-33.307 22.261-117.644 56.946-153.442 1.184-35.797-55.762-42.999-98.664 21.28-152.382 64.279-53.717 112.366-60.648 147.449-61.456 35.082-.808 68.675-158.765 142.648-157.587 73.972 1.179 62.124 39.421 117.999 105.742z" stroke="url(#paint86_linear_795_160)" style="mix-blend-mode:overlay" opacity=".771"/><path d="M205.72-133.832c56.781 65.161 141.122-6.664 140.989 132.833-.132 139.497-134.26 244.4-236.795 193.582C7.38 141.765-32.97 113.335-65.9 136.274c-32.93 22.94-116.634 59.349-153.208 4.333-36.575-55.016-44.404-97.762 18.988-152.787 63.391-55.026 111.308-62.942 146.329-64.47 35.02-1.527 66.221-160.14 140.108-160.48 73.886-.34 62.622 38.138 119.403 103.299z" stroke="url(#paint87_linear_795_160)" style="mix-blend-mode:overlay" opacity=".757"/><path d="M202.892-136.706c57.668 63.982 140.825-9.559 142.763 129.912 1.939 139.47-130.444 247.104-233.589 198.4-103.145-48.704-143.86-76.301-176.404-52.69-32.543 23.61-115.589 61.729-152.929 7.475-37.34-54.255-45.792-96.83 16.694-153.145C-138.087-63.07-90.355-71.966-55.406-74.212c34.949-2.246 63.753-161.467 137.53-163.322 73.777-1.856 63.1 36.845 120.768 100.828z" stroke="url(#paint88_linear_795_160)" style="mix-blend-mode:overlay" opacity=".743"/><path d="M200.028-139.521c58.538 62.786 140.487-12.445 144.492 126.955 4.006 139.401-126.595 249.727-230.318 203.15-103.723-46.577-144.792-73.333-176.94-49.059-32.147 24.273-114.51 64.086-152.604 10.61-38.093-53.476-47.165-95.87 14.398-153.454C-139.382-58.903-91.849-68.778-56.982-71.74c34.868-2.963 61.268-162.741 134.914-166.11 73.646-3.368 63.559 35.543 122.096 98.329z" stroke="url(#paint89_linear_795_160)" style="mix-blend-mode:overlay" opacity=".729"/><path d="M197.126-142.274c59.388 61.571 140.106-15.325 146.175 123.963 6.069 139.288-122.712 252.269-226.982 207.83C12.049 145.08-29.361 119.173-61.102 144.1c-31.743 24.928-113.401 66.423-152.235 13.739-38.833-52.683-48.523-94.88 12.1-153.715 60.622-58.835 107.942-69.682 142.717-73.36C-23.745-72.913.247-233.197 73.74-238.076c73.494-4.879 63.998 34.231 123.386 95.802z" stroke="url(#paint90_linear_795_160)" style="mix-blend-mode:overlay" opacity=".714"/><path d="M194.189-144.965c60.22 60.339 139.685-18.195 147.813 120.936 8.128 139.132-118.798 254.729-223.583 212.44-104.785-42.289-146.521-67.341-177.85-41.768-31.328 25.572-112.257 68.733-151.819 16.859-39.561-51.875-49.863-93.864 9.802-153.93 59.665-60.064 106.758-71.88 141.43-76.27 34.672-4.39 56.251-165.13 129.57-171.515 73.32-6.386 64.418 32.91 124.637 93.248z" stroke="url(#paint91_linear_795_160)" style="mix-blend-mode:overlay" opacity=".7"/><path d="M191.217-147.597c61.032 59.089 139.221-21.057 149.403 117.875 10.182 138.932-114.853 257.107-220.121 216.977-105.268-40.129-147.318-64.319-178.223-38.109-30.906 26.209-111.082 71.02-151.359 19.97-40.277-51.051-51.188-92.82 7.503-154.095 58.691-61.275 105.544-74.054 140.103-79.154 34.558-5.1 53.723-166.245 126.846-174.134 73.123-7.888 64.817 31.581 125.848 90.67z" stroke="url(#paint92_linear_795_160)" style="mix-blend-mode:overlay" opacity=".686"/><path d="M188.209-150.161c61.825 57.823 138.717-23.909 150.947 114.782 12.23 138.69-110.879 259.402-216.598 221.441-105.718-37.96-148.07-61.281-178.543-34.444-30.474 26.838-109.875 73.283-150.854 23.071-40.979-50.212-52.495-91.747 5.206-154.212 57.701-62.464 104.3-76.202 138.735-82.01C-28.463-67.34-11.716-228.84 61.189-238.227c72.906-9.387 65.196 30.243 127.02 88.066z" stroke="url(#paint93_linear_795_160)" style="mix-blend-mode:overlay" opacity=".671"/><path d="M185.172-152.669c62.598 56.54 138.172-26.749 152.443 111.657C351.886 97.393 230.737 220.6 124.601 184.819c-106.137-35.782-148.776-58.228-178.81-30.772-30.034 27.456-108.637 75.519-150.305 26.16-41.668-49.359-53.784-90.647 2.91-154.28C-144.909-37.707-98.578-52.397-64.276-58.91c34.302-6.513 48.629-168.317 121.295-179.197 72.666-10.881 65.555 28.898 128.153 85.438z" stroke="url(#paint94_linear_795_160)" style="mix-blend-mode:overlay" opacity=".657"/><path d="M182.101-155.106c63.351 55.242 137.586-29.577 153.891 108.501C352.298 91.473 233.143 217.136 126.621 183.54 20.098 149.945-22.816 128.379-52.401 156.445c-29.585 28.065-107.368 77.729-149.711 29.237-42.344-48.492-55.056-89.52.617-154.301 55.673-64.78 101.722-80.418 135.88-87.633 34.16-7.216 46.065-169.273 118.47-181.642 72.406-12.368 65.895 27.547 129.246 82.788z" stroke="url(#paint95_linear_795_160)" style="mix-blend-mode:overlay" opacity=".643"/><path d="M178.996-157.48c64.085 53.927 136.96-32.393 155.291 105.315 18.332 137.708-98.795 265.784-205.671 234.383-106.876-31.401-150.051-52.081-179.18-23.416-29.128 28.665-106.068 79.913-149.073 32.302-43.006-47.61-56.31-88.368-1.674-154.275 54.636-65.906 100.391-82.484 134.396-90.398 34.005-7.914 43.49-170.175 115.613-184.026 72.123-13.851 66.214 26.187 130.298 80.115z" stroke="url(#paint96_linear_795_160)" style="mix-blend-mode:overlay" opacity=".629"/><path d="M175.861-159.792c64.798 52.599 136.293-35.194 156.643 102.101 20.351 137.296-94.718 267.742-201.914 238.542-107.197-29.199-150.62-48.988-179.284-19.732-28.664 29.255-104.739 82.068-148.392 35.352-43.653-46.715-57.544-87.189-3.96-154.2 53.584-67.01 99.031-84.523 132.872-93.133 33.841-8.61 40.906-171.022 112.726-186.349 71.82-15.328 66.512 24.821 131.309 77.419z" stroke="url(#paint97_linear_795_160)" style="mix-blend-mode:overlay" opacity=".614"/><path d="M172.7-162.037c65.49 51.255 135.586-37.982 157.946 98.86 22.36 136.84-90.618 269.613-198.103 242.621C25.058 152.452-18.6 133.56-46.791 163.396c-28.19 29.836-103.379 84.196-147.666 38.389-44.288-45.807-58.76-85.986-6.243-154.078 52.517-68.091 97.643-86.532 131.31-95.834 33.67-9.303 38.315-171.817 109.81-188.615 71.495-16.797 66.79 23.45 132.28 74.704z" stroke="url(#paint98_linear_795_160)" style="mix-blend-mode:overlay" opacity=".6"/><path d="M169.511-164.213c66.162 49.896 134.84-40.755 159.199 95.59 24.359 136.345-86.496 271.4-194.237 246.621-107.74-24.778-151.62-42.769-179.33-12.363-27.71 30.407-101.991 86.295-146.898 41.409-44.907-44.885-59.956-84.756-8.52-153.907 51.437-69.151 96.228-88.513 129.712-98.504 33.485-9.99 35.714-172.555 106.863-190.815 71.15-18.26 67.049 22.073 133.211 71.969z" stroke="url(#paint99_linear_795_160)" style="mix-blend-mode:overlay" opacity=".586"/><path d="M166.291-166.325c66.813 48.524 134.054-43.511 160.403 92.296C353.043 61.778 244.339 199.07 136.376 176.51c-107.963-22.56-152.05-39.645-179.273-8.679-27.222 30.967-100.574 88.364-146.086 44.413-45.513-43.951-61.133-83.502-10.791-153.69 50.342-70.187 94.785-90.463 128.077-101.138 33.29-10.675 33.105-173.24 103.889-192.955 70.783-19.716 67.285 20.69 134.099 69.214z" stroke="url(#paint100_linear_795_160)" style="mix-blend-mode:overlay" opacity=".571"/><path d="M163.046-168.367c67.443 47.138 133.23-46.251 161.557 88.976 28.328 135.228-78.194 274.712-186.347 254.375-108.154-20.337-152.436-36.513-179.162-4.996-26.726 31.517-99.129 90.403-145.232 47.399-46.104-43.005-62.289-82.223-13.056-153.424 49.233-71.201 93.317-92.384 126.405-103.74C-39.7-51.131-42.296-213.645 28.1-234.808c70.396-21.163 67.502 19.303 134.946 66.442z" stroke="url(#paint101_linear_795_160)" style="mix-blend-mode:overlay" opacity=".557"/><path d="M159.777-170.343c68.052 45.741 132.366-48.972 162.661 85.634 30.295 134.607-74.017 276.238-182.327 258.127-108.31-18.111-152.773-33.373-178.997-1.317-26.223 32.057-97.656 92.412-144.336 50.367-46.679-42.045-63.425-80.92-15.313-153.111 48.112-72.191 91.823-94.273 124.699-106.304 32.875-12.032 27.873-174.446 97.862-197.048 69.988-22.602 67.698 17.911 135.751 63.652z" stroke="url(#paint102_linear_795_160)" style="mix-blend-mode:overlay" opacity=".543"/><path d="M156.483-172.248c68.641 44.33 131.465-51.676 163.715 82.269 32.25 133.944-69.823 277.675-178.258 261.794-108.435-15.882-153.065-30.226-178.778 2.36-25.713 32.585-96.156 94.39-143.397 53.315-47.241-41.074-64.541-79.594-17.563-152.752 46.978-73.157 90.303-96.13 122.957-108.833 32.653-12.703 25.25-174.966 94.81-198.999 69.56-24.032 67.874 16.516 136.514 60.846z" stroke="url(#paint103_linear_795_160)" style="mix-blend-mode:overlay" opacity=".529"/><path d="M153.168-174.087c69.207 42.907 130.524-54.36 164.717 78.882 34.194 133.242-65.614 279.026-174.14 265.376-108.527-13.65-153.31-27.074-178.507 6.03-25.196 33.103-94.629 96.336-142.416 56.244-47.788-40.092-65.635-78.244-19.805-152.345C-151.152 6-108.224-17.855-75.803-31.225c32.423-13.37 22.624-175.433 91.736-200.886 69.112-25.454 68.029 15.117 137.235 58.024z" stroke="url(#paint104_linear_795_160)" style="mix-blend-mode:overlay" opacity=".514"/><path d="M149.83-175.855c69.751 41.472 129.546-57.025 165.669 75.474 36.123 132.499-61.392 280.288-169.978 268.871C36.936 157.074-7.988 144.574-32.66 178.185c-24.672 33.611-93.077 98.251-141.395 59.152-48.318-39.098-66.708-76.872-22.036-151.891 44.672-75.019 87.19-99.749 119.37-113.78 32.182-14.032 19.994-175.844 88.637-202.709 68.643-26.865 68.163 13.715 137.914 55.188z" stroke="url(#paint105_linear_795_160)" style="mix-blend-mode:overlay" opacity=".5"/><path d="M146.473-177.552c70.273 40.026 128.53-59.668 166.569 72.048 38.038 131.715-57.158 281.462-165.77 272.279C38.66 157.593-6.389 146.02-30.531 180.128c-24.142 34.107-91.498 100.131-140.332 62.038-48.834-38.094-67.759-75.478-24.258-151.392 43.502-75.913 85.597-101.508 117.528-116.197 31.93-14.688 17.36-176.199 85.515-204.466 68.155-28.267 68.277 12.311 138.551 52.337z" stroke="url(#paint106_linear_795_160)" style="mix-blend-mode:overlay" opacity=".486"/><path d="M143.093-179.18c70.774 38.569 127.477-62.29 167.417 68.602 39.941 130.892-52.912 282.547-161.518 275.599C40.387 158.073-4.775 147.43-28.379 182.022c-23.605 34.593-89.895 101.98-139.229 64.902-49.335-37.078-68.789-74.062-26.469-150.845S-110.097-7.156-78.426-22.496c31.672-15.34 14.728-176.5 82.375-206.158 67.646-29.659 68.37 10.904 139.144 49.474z" stroke="url(#paint107_linear_795_160)" style="mix-blend-mode:overlay" opacity=".471"/><path d="M139.694-180.736c71.253 37.103 126.388-64.889 168.215 65.14 41.827 130.03-48.658 283.544-157.224 278.83-108.567-4.714-153.827-14.426-176.888 20.64-23.062 35.067-88.267 103.795-138.086 67.743-49.819-36.053-69.795-72.625-28.668-150.253C-151.83 23.736-110.616-3.564-79.213-19.549-47.811-35.535-67.12-196.295-.001-227.335c67.12-31.039 68.442 9.496 139.695 46.599z" stroke="url(#paint108_linear_795_160)" style="mix-blend-mode:overlay" opacity=".457"/><path d="M136.28-182.223c71.71 35.626 125.263-67.466 168.961 61.661 43.698 129.127-44.395 284.451-152.89 281.97-108.495-2.481-153.84-11.259-176.352 24.27-22.512 35.529-86.614 105.574-136.902 70.558-50.288-35.017-70.78-71.166-30.856-149.614C-151.835 28.174-111.079.036-79.954-16.59c31.125-16.626 9.46-176.937 76.032-209.346 66.571-32.408 68.493 8.086 140.202 43.713z" stroke="url(#paint109_linear_795_160)" style="mix-blend-mode:overlay" opacity=".443"/><path d="M132.848-183.636c72.144 34.141 124.101-70.018 169.654 58.168s-40.126 285.269-148.516 285.019C45.596 159.302.18 151.458-21.777 187.438c-21.956 35.98-84.938 107.321-135.679 73.35-50.741-33.971-71.742-69.688-33.032-148.931 38.711-79.243 78.997-108.209 109.835-125.47 30.839-17.26 6.829-177.072 72.834-210.838 66.005-33.767 68.523 6.675 140.667 40.815z" stroke="url(#paint110_linear_795_160)" style="mix-blend-mode:overlay" opacity=".429"/><path d="M129.402-184.977c72.556 32.645 122.903-72.547 170.295 54.659C347.089-3.111 263.846 155.681 155.593 157.66 47.34 159.639 1.866 152.732-19.529 189.152c-21.396 36.419-83.24 109.03-134.418 76.114-51.178-32.916-72.68-68.189-35.193-148.201C-151.653 37.053-111.848 7.268-81.305-10.621c30.543-17.888 4.198-177.154 69.618-212.266 65.42-35.112 68.534 5.264 141.089 37.91z" stroke="url(#paint111_linear_795_160)" style="mix-blend-mode:overlay" opacity=".414"/><path d="M125.941-186.249c72.945 31.142 121.671-75.05 170.884 51.138 49.213 126.189-31.572 286.639-139.656 290.844-108.084 4.204-153.6-1.765-174.43 35.082-20.829 36.847-81.518 110.706-133.117 78.853-51.599-31.852-73.596-66.671-37.341-147.427 36.254-80.756 75.567-111.35 105.806-129.86 30.238-18.51 1.57-177.18 66.386-213.625 64.816-36.446 68.523 3.852 141.468 34.995z" stroke="url(#paint112_linear_795_160)" style="mix-blend-mode:overlay" opacity=".4"/><path d="M122.467-187.447c73.312 29.631 120.403-77.526 171.42 47.606 51.016 125.133-27.29 287.19-135.173 293.616-107.882 6.427-153.428 1.396-173.685 38.659-20.257 37.263-79.775 112.344-131.779 81.564-52.004-30.78-74.487-65.134-39.475-146.608C-151.212 45.916-112.402 14.524-82.477-4.602c29.926-19.126-1.052-177.151 63.14-214.917 64.193-37.767 68.492 2.442 141.804 32.072z" stroke="url(#paint113_linear_795_160)" style="mix-blend-mode:overlay" opacity=".386"/><path d="M118.98-188.571c73.656 28.112 119.102-79.978 171.904 44.062 52.802 124.039-23.006 287.65-130.655 296.294-107.649 8.645-153.21 4.553-172.89 42.219-19.68 37.667-78.01 113.947-130.403 84.247-52.393-29.699-75.355-63.579-41.593-145.744 33.763-82.166 72.058-114.345 101.662-134.08 29.605-19.736-3.671-177.068 59.88-216.142 63.551-39.074 68.44 1.032 142.095 29.144z" stroke="url(#paint114_linear_795_160)" style="mix-blend-mode:overlay" opacity=".371"/><path d="M115.481-189.622c73.977 26.586 117.765-82.4 172.334 40.508 54.569 122.909-18.722 288.023-126.105 298.879-107.383 10.857-152.947 7.704-172.044 45.763-19.097 38.058-76.225 115.511-128.99 86.901-52.764-28.611-76.198-62.006-43.694-144.837C-150.514 54.76-112.744 21.804-83.469 1.466c29.274-20.337-6.286-176.929 56.605-217.297 62.892-40.368 68.367-.377 142.345 26.209z" stroke="url(#paint115_linear_795_160)" style="mix-blend-mode:overlay" opacity=".357"/><path d="M111.972-190.606c74.275 25.054 116.396-84.795 172.712 36.946 56.317 121.742-14.44 288.305-121.524 301.369C56.075 160.772 10.523 158.558-7.988 196.996c-18.51 38.438-74.42 117.04-127.539 89.526-53.12-27.515-77.018-60.415-45.78-143.886S-112.835 25.443-83.899 4.51c28.937-20.933-8.893-176.737 53.321-218.386 62.215-41.648 68.274-1.784 142.55 23.27z" stroke="url(#paint116_linear_795_160)" style="mix-blend-mode:overlay" opacity=".343"/><path d="M108.454-191.51c74.551 23.515 114.995-87.162 173.039 33.376 58.043 120.538-10.16 288.499-116.915 303.762-106.755 15.264-152.282 13.989-170.2 52.794-17.919 38.805-72.595 118.53-126.053 92.119-53.459-26.41-77.813-58.807-47.849-142.891C-149.56 63.566-112.871 29.09-84.281 7.568c28.59-21.521-11.495-176.49 50.024-219.404 61.52-42.915 68.16-3.19 142.711 20.326z" stroke="url(#paint117_linear_795_160)" style="mix-blend-mode:overlay" opacity=".329"/><path d="M104.931-192.34c74.804 21.971 113.56-89.498 173.311 29.8 59.751 119.299-5.883 288.603-112.277 306.06C59.572 160.976 14.085 160.64-3.238 199.8c-17.322 39.16-70.75 119.982-124.531 94.682-53.781-25.3-78.582-57.183-49.899-141.854 28.684-84.67 64.816-119.89 93.051-141.992C-56.38-11.467-98.705-165.553-37.898-209.72s68.026-4.592 142.829 17.379z" stroke="url(#paint118_linear_795_160)" style="mix-blend-mode:overlay" opacity=".314"/><path d="M101.398-193.102c75.033 20.422 112.094-91.805 173.531 26.219 61.437 118.023-1.613 288.617-107.613 308.259-106 19.643-151.435 20.243-168.156 59.746-16.721 39.502-68.888 121.395-122.974 97.212-54.086-24.182-79.327-55.543-51.931-140.773 27.396-85.23 62.962-121.181 90.835-143.857 27.872-22.676-16.673-175.834 43.403-221.237 60.077-45.402 67.872-5.992 142.905 14.431z" stroke="url(#paint119_linear_795_160)" style="mix-blend-mode:overlay" opacity=".3"/><path d="M97.86-193.788c75.239 18.868 110.595-94.081 173.698 22.633 63.102 116.714 2.652 288.544-102.924 310.363-105.575 21.819-150.943 23.356-167.06 63.188-16.117 39.833-67.008 122.77-121.382 99.711-54.375-23.059-80.047-53.887-53.945-139.651C-147.65 76.693-112.66 40.022-85.158 16.781c27.503-23.242-19.248-175.425 40.082-222.049 59.33-46.624 67.697-7.389 142.936 11.48z" stroke="url(#paint120_linear_795_160)" style="mix-blend-mode:overlay" opacity=".286"/><path d="M94.321-194.399c75.423 17.311 109.066-96.325 173.812 19.045 64.746 115.369 6.909 288.38-98.211 312.368C64.803 161.001 19.515 163.473 4.007 203.622c-15.509 40.15-65.11 124.105-119.756 102.176-54.647-21.93-80.741-52.218-55.938-138.487 24.803-86.27 59.207-123.647 86.332-147.447 27.124-23.8-21.815-174.963 36.752-222.792 58.566-47.829 67.502-8.781 142.924 8.529z" stroke="url(#paint121_linear_795_160)" style="mix-blend-mode:overlay" opacity=".271"/><path d="M90.773-194.938c75.583 15.748 107.506-98.538 173.873 15.453 66.367 113.99 11.157 288.129-93.476 314.275C66.538 160.936 21.344 164.34 6.448 204.795c-14.896 40.454-63.196 125.401-118.096 104.606-54.901-20.794-81.41-50.533-57.911-137.281 23.498-86.748 57.307-124.822 84.046-149.172 26.739-24.35-24.37-174.446 33.417-223.465 57.786-49.019 67.287-10.17 142.87 5.579z" stroke="url(#paint122_linear_795_160)" style="mix-blend-mode:overlay" opacity=".257"/><path d="M87.226-195.404c75.719 14.184 105.916-100.717 173.881 11.861 67.965 112.579 15.394 287.79-88.72 316.084-104.114 28.294-149.201 32.63-163.481 73.376-14.28 40.746-61.266 126.656-116.404 107.002-55.138-19.654-82.052-48.834-59.864-136.034 22.189-87.2 55.393-125.956 81.739-150.849 26.346-24.893-26.913-173.878 30.077-224.07 56.99-50.191 67.052-11.553 142.772 2.63z" stroke="url(#paint123_linear_795_160)" style="mix-blend-mode:overlay" opacity=".243"/><path d="M83.68-195.794c75.833 12.616 104.297-102.864 173.837 8.269 69.539 111.133 19.62 287.362-83.946 317.793C70.006 160.7 25.04 165.963 11.379 206.988-2.283 248.014-47.941 334.861-103.3 316.352c-55.358-18.509-82.669-47.123-61.794-134.748 20.874-87.624 53.465-127.05 79.41-152.477C-59.739 3.7-115.128-144.129-58.95-195.477c56.178-51.349 66.797-12.933 142.63-.317z" stroke="url(#paint124_linear_795_160)" style="mix-blend-mode:overlay" opacity=".229"/><path d="M80.128-196.11c75.923 11.046 102.648-104.977 173.739 4.678C324.958-81.777 277.7 95.415 174.714 127.972 71.728 160.529 26.896 166.718 13.857 208.009.818 249.301-43.503 337.057-99.063 319.697c-55.562-17.359-83.26-45.399-63.705-133.42 19.556-88.021 51.524-128.105 77.062-154.057 25.538-25.953-31.961-172.582 23.388-225.07 55.35-52.488 66.522-14.306 142.446-3.26z" stroke="url(#paint125_linear_795_160)" style="mix-blend-mode:overlay" opacity=".214"/><path d="M76.581-196.354c75.991 9.475 100.972-107.055 173.59 1.09 72.618 108.145 28.031 286.243-74.345 320.914-102.377 34.67-147.06 41.783-159.474 83.327C3.938 250.522-39.033 339.159-94.781 322.953c-55.747-16.206-83.824-43.662-65.59-132.053 18.233-88.391 49.57-129.12 74.693-155.589 25.123-26.47-34.465-171.855 20.04-225.465 54.507-53.611 66.228-15.674 142.219-6.2z" stroke="url(#paint126_linear_795_160)" style="mix-blend-mode:overlay" opacity=".2"/><path d="M73.031-196.522c76.035 7.901 99.267-109.099 173.387-2.496 74.121 106.604 32.215 285.553-69.521 322.324C75.16 160.077 30.637 168.11 18.851 209.895 7.065 251.679-34.546 341.169-90.462 326.121c-55.916-15.048-84.362-41.914-67.454-130.647 16.908-88.733 47.605-130.093 72.306-157.07 24.702-26.979-36.954-171.077 16.693-225.792 53.648-54.715 65.913-17.036 141.948-9.134z" stroke="url(#paint127_linear_795_160)" style="mix-blend-mode:overlay" opacity=".186"/><path d="M69.489-196.619c76.055 6.328 97.534-111.107 173.132-6.076 75.598 105.03 36.381 284.775-64.686 323.634-101.067 38.858-145.415 47.807-156.57 89.819C10.208 252.77-30.032 343.084-86.1 329.197c-56.068-13.888-84.874-40.155-69.294-129.203 15.579-89.048 45.629-131.025 69.901-158.503 24.273-27.477-39.428-170.245 13.346-226.047 52.774-55.802 65.579-18.391 141.635-12.063z" stroke="url(#paint128_linear_795_160)" style="mix-blend-mode:overlay" opacity=".171"/><path d="M65.954-196.629c76.053 4.753 95.776-113.079 172.825-9.652 77.05 103.427 40.53 283.912-59.837 324.843-100.368 40.932-144.53 50.794-155.052 93.02-10.523 42.225-49.382 133.336-105.584 120.612-56.201-12.723-85.358-38.385-71.11-127.72 14.249-89.334 43.642-131.916 67.48-159.884 23.837-27.969-41.887-169.364 9.999-226.235 51.886-56.87 65.226-19.738 141.279-14.984z" stroke="url(#paint129_linear_795_160)" style="mix-blend-mode:overlay" opacity=".157"/><path d="M62.42-196.576c76.028 3.179 93.991-115.014 172.466-13.22 78.476 101.793 44.659 282.962-54.98 325.952-99.639 42.99-143.6 53.761-153.487 96.187-9.888 42.427-47.357 134.304-103.675 122.748-56.319-11.556-85.817-36.606-72.901-126.2 12.915-89.594 41.644-132.766 65.04-161.216 23.396-28.45-44.327-168.432 6.656-226.352 50.983-57.921 64.853-21.079 140.881-17.899z" stroke="url(#paint130_linear_795_160)" style="mix-blend-mode:overlay" opacity=".143"/><path d="M58.895-196.453c75.979 1.606 92.179-116.911 172.055-16.781 79.875 100.131 48.767 281.927-50.114 326.96-98.88 45.033-142.628 56.709-151.879 99.323-9.25 42.614-45.32 135.23-101.738 124.843-56.418-10.387-86.247-34.817-74.667-124.643 11.58-89.825 39.638-133.575 62.586-162.497 22.948-28.923-46.751-167.448 3.316-226.4s64.462-22.411 140.44-20.805z" stroke="url(#paint131_linear_795_160)" style="mix-blend-mode:overlay" opacity=".129"/><path d="M55.374-196.257c75.907.034 90.344-118.772 171.592-20.333 81.249 98.438 52.855 280.806-45.24 327.866-98.094 47.061-141.614 59.637-150.227 102.425-8.612 42.789-43.274 136.114-99.773 126.898-56.5-9.216-86.652-33.019-76.408-123.048 10.244-90.03 37.623-134.342 60.117-163.728 22.493-29.386-49.156-166.414-.02-226.378 49.137-59.964 64.052-23.736 139.959-23.702z" stroke="url(#paint132_linear_795_160)" style="mix-blend-mode:overlay" opacity=".114"/><path d="M51.862-195.986c75.812-1.536 88.483-120.594 171.077-23.875 82.595 96.718 56.919 279.6-40.36 328.672-97.28 49.071-140.56 62.543-148.532 105.493-7.972 42.95-41.218 136.955-97.782 128.911-56.565-8.043-87.028-31.213-78.121-121.418 8.907-90.206 35.6-135.067 57.633-164.907 22.033-29.84-51.542-165.331-3.35-226.288 48.194-60.957 63.622-25.052 139.435-26.588z" stroke="url(#paint133_linear_795_160)" style="mix-blend-mode:overlay" opacity=".1"/><path d="M48.362-195.641c75.694-3.105 86.599-122.377 170.511-27.407 83.913 94.971 60.959 278.311-35.477 329.377-96.435 51.065-139.463 65.427-146.794 108.525-7.33 43.097-39.152 137.753-95.763 130.883-56.612-6.869-87.378-29.399-79.809-119.753 7.57-90.354 33.569-135.75 55.136-166.033 21.567-30.284-53.908-164.199-6.672-226.129 47.236-61.93 63.173-26.358 138.868-29.463z" stroke="url(#paint134_linear_795_160)" style="mix-blend-mode:overlay" opacity=".086"/><path d="M44.87-195.226c75.554-4.67 84.692-124.121 169.895-30.926 85.203 93.195 64.972 276.938-30.591 329.98C88.61 156.869 45.847 172.116 39.159 215.349c-6.688 43.232-37.078 138.509-93.72 132.814-56.641-5.695-87.7-27.579-81.468-118.053 6.232-90.474 31.532-136.39 52.626-167.109 21.095-30.718-56.254-163.016-9.987-225.9 46.266-62.883 62.706-27.656 138.26-32.327z" stroke="url(#paint135_linear_795_160)" style="mix-blend-mode:overlay" opacity=".071"/><path d="M41.39-194.737c75.391-6.234 82.762-125.825 169.228-34.432 86.465 91.393 68.96 275.481-25.705 330.481-94.664 55-137.149 71.126-143.193 114.48-6.044 43.353-34.996 139.221-91.65 134.702-56.654-4.519-87.995-25.751-83.101-116.319 4.895-90.567 29.488-136.989 50.105-168.131C-62.31 34.9-141.505-95.743-96.221-159.56c45.285-63.817 62.222-28.944 137.612-35.178z" stroke="url(#paint136_linear_795_160)" style="mix-blend-mode:overlay" opacity=".057"/><path d="M37.922-194.176c75.204-7.794 80.809-127.49 168.508-37.925 87.699 89.565 72.92 273.943-20.817 330.882-93.737 56.938-135.932 73.939-141.332 117.4-5.4 43.462-32.907 139.891-89.556 136.548-56.649-3.344-88.263-23.918-84.705-114.551 3.558-90.632 27.439-137.545 47.572-169.102C-62.275 37.518-143.29-91.433-99-156.162c44.29-64.729 61.718-30.221 136.922-38.014z" stroke="url(#paint137_linear_795_160)" style="mix-blend-mode:overlay" opacity=".043"/><path d="M34.472-193.544c74.976-9.347 78.813-129.112 167.697-41.399 88.883 87.714 76.837 272.324-15.921 331.18-92.759 58.857-134.64 76.724-139.393 120.28-4.752 43.556-30.8 140.516-87.413 138.347-56.613-2.17-88.482-22.081-86.261-112.751 2.22-90.67 25.375-138.058 45.013-170.02 19.639-31.961-63.149-159.183-19.878-224.803 43.272-65.62 61.18-31.487 136.156-40.834z" stroke="url(#paint138_linear_795_160)" style="mix-blend-mode:overlay" opacity=".029"/><path d="M31.025-192.899c74.771-10.902 76.847-130.728 166.938-44.872 90.09 85.857 80.764 270.69-11.047 331.462-91.811 60.773-133.392 79.506-137.502 123.154-4.11 43.648-28.71 141.135-85.304 140.141-56.594-.995-88.726-20.242-87.838-110.945.887-90.703 23.326-138.565 42.478-170.929 19.152-32.364-65.428-157.85-23.159-224.358 42.27-66.508 60.663-32.752 135.434-43.653z" stroke="url(#paint139_linear_795_160)" style="mix-blend-mode:overlay" opacity=".014"/></g></g><defs><linearGradient id="paint0_linear_795_160" x1="2183.91" y1="194.012" x2="1969.62" y2="-266.836" gradientUnits="userSpaceOnUse"><stop stop-color="#0049D7"/><stop offset="1" stop-color="#6A0963" stop-opacity="0"/></linearGradient><linearGradient id="paint1_linear_795_160" x1="2185.46" y1="187.06" x2="1962.8" y2="-268.183" gradientUnits="userSpaceOnUse"><stop stop-color="#0049D7"/><stop offset="1" stop-color="#6A0963" stop-opacity="0"/></linearGradient><linearGradient id="paint2_linear_795_160" x1="2186.9" y1="180.081" x2="1956.07" y2="-269.398" gradientUnits="userSpaceOnUse"><stop stop-color="#0049D7"/><stop offset="1" stop-color="#6A0963" stop-opacity="0"/></linearGradient><linearGradient id="paint3_linear_795_160" x1="2188.25" y1="173.078" x2="1949.43" y2="-270.489" gradientUnits="userSpaceOnUse"><stop stop-color="#0049D7"/><stop offset="1" stop-color="#6A0963" stop-opacity="0"/></linearGradient><linearGradient id="paint4_linear_795_160" x1="2189.48" y1="166.053" x2="1942.89" y2="-271.462" gradientUnits="userSpaceOnUse"><stop stop-color="#0049D7"/><stop offset="1" stop-color="#6A0963" stop-opacity="0"/></linearGradient><linearGradient id="paint5_linear_795_160" x1="2190.62" y1="159.009" x2="1936.45" y2="-272.322" gradientUnits="userSpaceOnUse"><stop stop-color="#0049D7"/><stop offset="1" stop-color="#6A0963" stop-opacity="0"/></linearGradient><linearGradient id="paint6_linear_795_160" x1="2191.65" y1="151.945" x2="1930.11" y2="-273.08" gradientUnits="userSpaceOnUse"><stop stop-color="#0049D7"/><stop offset="1" stop-color="#6A0963" stop-opacity="0"/></linearGradient><linearGradient id="paint7_linear_795_160" x1="2192.58" y1="144.867" x2="1923.87" y2="-273.738" gradientUnits="userSpaceOnUse"><stop stop-color="#0049D7"/><stop offset="1" stop-color="#6A0963" stop-opacity="0"/></linearGradient><linearGradient id="paint8_linear_795_160" x1="2193.41" y1="137.777" x2="1917.73" y2="-274.303" gradientUnits="userSpaceOnUse"><stop stop-color="#0049D7"/><stop offset="1" stop-color="#6A0963" stop-opacity="0"/></linearGradient><linearGradient id="paint9_linear_795_160" x1="2194.13" y1="130.677" x2="1911.68" y2="-274.783" gradientUnits="userSpaceOnUse"><stop stop-color="#0049D7"/><stop offset="1" stop-color="#6A0963" stop-opacity="0"/></linearGradient><linearGradient id="paint10_linear_795_160" x1="2194.75" y1="123.566" x2="1905.74" y2="-275.183" gradientUnits="userSpaceOnUse"><stop stop-color="#0049D7"/><stop offset="1" stop-color="#6A0963" stop-opacity="0"/></linearGradient><linearGradient id="paint11_linear_795_160" x1="2195.26" y1="116.449" x2="1899.89" y2="-275.51" gradientUnits="userSpaceOnUse"><stop stop-color="#0049D7"/><stop offset="1" stop-color="#6A0963" stop-opacity="0"/></linearGradient><linearGradient id="paint12_linear_795_160" x1="2195.67" y1="109.326" x2="1894.14" y2="-275.77" gradientUnits="userSpaceOnUse"><stop stop-color="#0049D7"/><stop offset="1" stop-color="#6A0963" stop-opacity="0"/></linearGradient><linearGradient id="paint13_linear_795_160" x1="2195.98" y1="102.205" x2="1888.48" y2="-275.962" gradientUnits="userSpaceOnUse"><stop stop-color="#0049D7"/><stop offset="1" stop-color="#6A0963" stop-opacity="0"/></linearGradient><linearGradient id="paint14_linear_795_160" x1="2196.18" y1="95.078" x2="1882.92" y2="-276.102" gradientUnits="userSpaceOnUse"><stop stop-color="#0049D7"/><stop offset="1" stop-color="#6A0963" stop-opacity="0"/></linearGradient><linearGradient id="paint15_linear_795_160" x1="2196.28" y1="87.955" x2="1877.45" y2="-276.186" gradientUnits="userSpaceOnUse"><stop stop-color="#0049D7"/><stop offset="1" stop-color="#6A0963" stop-opacity="0"/></linearGradient><linearGradient id="paint16_linear_795_160" x1="2196.27" y1="80.837" x2="1872.06" y2="-276.221" gradientUnits="userSpaceOnUse"><stop stop-color="#0049D7"/><stop offset="1" stop-color="#6A0963" stop-opacity="0"/></linearGradient><linearGradient id="paint17_linear_795_160" x1="2196.17" y1="73.725" x2="1866.76" y2="-276.212" gradientUnits="userSpaceOnUse"><stop stop-color="#0049D7"/><stop offset="1" stop-color="#6A0963" stop-opacity="0"/></linearGradient><linearGradient id="paint18_linear_795_160" x1="2195.96" y1="66.621" x2="1861.55" y2="-276.161" gradientUnits="userSpaceOnUse"><stop stop-color="#0049D7"/><stop offset="1" stop-color="#6A0963" stop-opacity="0"/></linearGradient><linearGradient id="paint19_linear_795_160" x1="2195.64" y1="59.526" x2="1856.41" y2="-276.075" gradientUnits="userSpaceOnUse"><stop stop-color="#0049D7"/><stop offset="1" stop-color="#6A0963" stop-opacity="0"/></linearGradient><linearGradient id="paint20_linear_795_160" x1="2195.22" y1="52.445" x2="1851.35" y2="-275.954" gradientUnits="userSpaceOnUse"><stop stop-color="#0049D7"/><stop offset="1" stop-color="#6A0963" stop-opacity="0"/></linearGradient><linearGradient id="paint21_linear_795_160" x1="2194.7" y1="45.38" x2="1846.37" y2="-275.802" gradientUnits="userSpaceOnUse"><stop stop-color="#0049D7"/><stop offset="1" stop-color="#6A0963" stop-opacity="0"/></linearGradient><linearGradient id="paint22_linear_795_160" x1="2194.08" y1="38.328" x2="1841.45" y2="-275.625" gradientUnits="userSpaceOnUse"><stop stop-color="#0049D7"/><stop offset="1" stop-color="#6A0963" stop-opacity="0"/></linearGradient><linearGradient id="paint23_linear_795_160" x1="2193.35" y1="31.298" x2="1836.61" y2="-275.419" gradientUnits="userSpaceOnUse"><stop stop-color="#0049D7"/><stop offset="1" stop-color="#6A0963" stop-opacity="0"/></linearGradient><linearGradient id="paint24_linear_795_160" x1="2192.52" y1="24.289" x2="1831.82" y2="-275.19" gradientUnits="userSpaceOnUse"><stop stop-color="#0049D7"/><stop offset="1" stop-color="#6A0963" stop-opacity="0"/></linearGradient><linearGradient id="paint25_linear_795_160" x1="2191.6" y1="17.3" x2="1827.1" y2="-274.944" gradientUnits="userSpaceOnUse"><stop stop-color="#0049D7"/><stop offset="1" stop-color="#6A0963" stop-opacity="0"/></linearGradient><linearGradient id="paint26_linear_795_160" x1="2190.57" y1="10.34" x2="1822.43" y2="-274.673" gradientUnits="userSpaceOnUse"><stop stop-color="#0049D7"/><stop offset="1" stop-color="#6A0963" stop-opacity="0"/></linearGradient><linearGradient id="paint27_linear_795_160" x1="2189.44" y1="3.403" x2="1817.82" y2="-274.388" gradientUnits="userSpaceOnUse"><stop stop-color="#0049D7"/><stop offset="1" stop-color="#6A0963" stop-opacity="0"/></linearGradient><linearGradient id="paint28_linear_795_160" x1="2188.21" y1="-3.503" x2="1813.26" y2="-274.084" gradientUnits="userSpaceOnUse"><stop stop-color="#0049D7"/><stop offset="1" stop-color="#6A0963" stop-opacity="0"/></linearGradient><linearGradient id="paint29_linear_795_160" x1="2186.88" y1="-10.377" x2="1808.75" y2="-273.764" gradientUnits="userSpaceOnUse"><stop stop-color="#0049D7"/><stop offset="1" stop-color="#6A0963" stop-opacity="0"/></linearGradient><linearGradient id="paint30_linear_795_160" x1="2185.45" y1="-17.219" x2="1804.27" y2="-273.428" gradientUnits="userSpaceOnUse"><stop stop-color="#0049D7"/><stop offset="1" stop-color="#6A0963" stop-opacity="0"/></linearGradient><linearGradient id="paint31_linear_795_160" x1="2183.92" y1="-24.023" x2="1799.84" y2="-273.076" gradientUnits="userSpaceOnUse"><stop stop-color="#0049D7"/><stop offset="1" stop-color="#6A0963" stop-opacity="0"/></linearGradient><linearGradient id="paint32_linear_795_160" x1="2182.3" y1="-30.793" x2="1795.45" y2="-272.71" gradientUnits="userSpaceOnUse"><stop stop-color="#0049D7"/><stop offset="1" stop-color="#6A0963" stop-opacity="0"/></linearGradient><linearGradient id="paint33_linear_795_160" x1="2180.58" y1="-37.523" x2="1791.08" y2="-272.33" gradientUnits="userSpaceOnUse"><stop stop-color="#0049D7"/><stop offset="1" stop-color="#6A0963" stop-opacity="0"/></linearGradient><linearGradient id="paint34_linear_795_160" x1="2178.76" y1="-44.211" x2="1786.75" y2="-271.933" gradientUnits="userSpaceOnUse"><stop stop-color="#0049D7"/><stop offset="1" stop-color="#6A0963" stop-opacity="0"/></linearGradient><linearGradient id="paint35_linear_795_160" x1="2176.85" y1="-50.856" x2="1782.45" y2="-271.521" gradientUnits="userSpaceOnUse"><stop stop-color="#0049D7"/><stop offset="1" stop-color="#6A0963" stop-opacity="0"/></linearGradient><linearGradient id="paint36_linear_795_160" x1="2174.84" y1="-57.455" x2="1778.17" y2="-271.091" gradientUnits="userSpaceOnUse"><stop stop-color="#0049D7"/><stop offset="1" stop-color="#6A0963" stop-opacity="0"/></linearGradient><linearGradient id="paint37_linear_795_160" x1="2172.74" y1="-64.01" x2="1773.91" y2="-270.646" gradientUnits="userSpaceOnUse"><stop stop-color="#0049D7"/><stop offset="1" stop-color="#6A0963" stop-opacity="0"/></linearGradient><linearGradient id="paint38_linear_795_160" x1="2170.54" y1="-70.513" x2="1769.66" y2="-270.181" gradientUnits="userSpaceOnUse"><stop stop-color="#0049D7"/><stop offset="1" stop-color="#6A0963" stop-opacity="0"/></linearGradient><linearGradient id="paint39_linear_795_160" x1="2168.26" y1="-76.967" x2="1765.44" y2="-269.698" gradientUnits="userSpaceOnUse"><stop stop-color="#0049D7"/><stop offset="1" stop-color="#6A0963" stop-opacity="0"/></linearGradient><linearGradient id="paint40_linear_795_160" x1="2165.88" y1="-83.367" x2="1761.23" y2="-269.194" gradientUnits="userSpaceOnUse"><stop stop-color="#0049D7"/><stop offset="1" stop-color="#6A0963" stop-opacity="0"/></linearGradient><linearGradient id="paint41_linear_795_160" x1="2163.41" y1="-89.714" x2="1757.02" y2="-268.669" gradientUnits="userSpaceOnUse"><stop stop-color="#0049D7"/><stop offset="1" stop-color="#6A0963" stop-opacity="0"/></linearGradient><linearGradient id="paint42_linear_795_160" x1="2160.84" y1="-96.004" x2="1752.83" y2="-268.119" gradientUnits="userSpaceOnUse"><stop stop-color="#0049D7"/><stop offset="1" stop-color="#6A0963" stop-opacity="0"/></linearGradient><linearGradient id="paint43_linear_795_160" x1="2158.19" y1="-102.235" x2="1748.64" y2="-267.544" gradientUnits="userSpaceOnUse"><stop stop-color="#0049D7"/><stop offset="1" stop-color="#6A0963" stop-opacity="0"/></linearGradient><linearGradient id="paint44_linear_795_160" x1="2155.46" y1="-108.407" x2="1744.46" y2="-266.943" gradientUnits="userSpaceOnUse"><stop stop-color="#0049D7"/><stop offset="1" stop-color="#6A0963" stop-opacity="0"/></linearGradient><linearGradient id="paint45_linear_795_160" x1="2152.63" y1="-114.517" x2="1740.28" y2="-266.311" gradientUnits="userSpaceOnUse"><stop stop-color="#0049D7"/><stop offset="1" stop-color="#6A0963" stop-opacity="0"/></linearGradient><linearGradient id="paint46_linear_795_160" x1="2149.71" y1="-120.563" x2="1736.1" y2="-265.65" gradientUnits="userSpaceOnUse"><stop stop-color="#0049D7"/><stop offset="1" stop-color="#6A0963" stop-opacity="0"/></linearGradient><linearGradient id="paint47_linear_795_160" x1="2146.71" y1="-126.545" x2="1731.91" y2="-264.955" gradientUnits="userSpaceOnUse"><stop stop-color="#0049D7"/><stop offset="1" stop-color="#6A0963" stop-opacity="0"/></linearGradient><linearGradient id="paint48_linear_795_160" x1="2143.63" y1="-132.459" x2="1727.73" y2="-264.225" gradientUnits="userSpaceOnUse"><stop stop-color="#0049D7"/><stop offset="1" stop-color="#6A0963" stop-opacity="0"/></linearGradient><linearGradient id="paint49_linear_795_160" x1="2140.47" y1="-138.307" x2="1723.54" y2="-263.459" gradientUnits="userSpaceOnUse"><stop stop-color="#0049D7"/><stop offset="1" stop-color="#6A0963" stop-opacity="0"/></linearGradient><linearGradient id="paint50_linear_795_160" x1="2137.22" y1="-144.081" x2="1719.34" y2="-262.65" gradientUnits="userSpaceOnUse"><stop stop-color="#0049D7"/><stop offset="1" stop-color="#6A0963" stop-opacity="0"/></linearGradient><linearGradient id="paint51_linear_795_160" x1="2133.89" y1="-149.783" x2="1715.14" y2="-261.799" gradientUnits="userSpaceOnUse"><stop stop-color="#0049D7"/><stop offset="1" stop-color="#6A0963" stop-opacity="0"/></linearGradient><linearGradient id="paint52_linear_795_160" x1="2130.48" y1="-155.414" x2="1710.93" y2="-260.905" gradientUnits="userSpaceOnUse"><stop stop-color="#0049D7"/><stop offset="1" stop-color="#6A0963" stop-opacity="0"/></linearGradient><linearGradient id="paint53_linear_795_160" x1="2126.99" y1="-160.97" x2="1706.71" y2="-259.964" gradientUnits="userSpaceOnUse"><stop stop-color="#0049D7"/><stop offset="1" stop-color="#6A0963" stop-opacity="0"/></linearGradient><linearGradient id="paint54_linear_795_160" x1="2123.42" y1="-166.448" x2="1702.48" y2="-258.973" gradientUnits="userSpaceOnUse"><stop stop-color="#0049D7"/><stop offset="1" stop-color="#6A0963" stop-opacity="0"/></linearGradient><linearGradient id="paint55_linear_795_160" x1="2119.78" y1="-171.847" x2="1698.24" y2="-257.928" gradientUnits="userSpaceOnUse"><stop stop-color="#0049D7"/><stop offset="1" stop-color="#6A0963" stop-opacity="0"/></linearGradient><linearGradient id="paint56_linear_795_160" x1="2116.06" y1="-177.168" x2="1693.99" y2="-256.83" gradientUnits="userSpaceOnUse"><stop stop-color="#0049D7"/><stop offset="1" stop-color="#6A0963" stop-opacity="0"/></linearGradient><linearGradient id="paint57_linear_795_160" x1="2112.27" y1="-182.406" x2="1689.72" y2="-255.673" gradientUnits="userSpaceOnUse"><stop stop-color="#0049D7"/><stop offset="1" stop-color="#6A0963" stop-opacity="0"/></linearGradient><linearGradient id="paint58_linear_795_160" x1="2108.41" y1="-187.564" x2="1685.45" y2="-254.458" gradientUnits="userSpaceOnUse"><stop stop-color="#0049D7"/><stop offset="1" stop-color="#6A0963" stop-opacity="0"/></linearGradient><linearGradient id="paint59_linear_795_160" x1="2104.47" y1="-192.627" x2="1681.17" y2="-253.169" gradientUnits="userSpaceOnUse"><stop stop-color="#0049D7"/><stop offset="1" stop-color="#6A0963" stop-opacity="0"/></linearGradient><linearGradient id="paint60_linear_795_160" x1="2100.46" y1="-197.613" x2="1676.87" y2="-251.824" gradientUnits="userSpaceOnUse"><stop stop-color="#0049D7"/><stop offset="1" stop-color="#6A0963" stop-opacity="0"/></linearGradient><linearGradient id="paint61_linear_795_160" x1="2096.39" y1="-202.513" x2="1672.57" y2="-250.41" gradientUnits="userSpaceOnUse"><stop stop-color="#0049D7"/><stop offset="1" stop-color="#6A0963" stop-opacity="0"/></linearGradient><linearGradient id="paint62_linear_795_160" x1="2092.24" y1="-207.325" x2="1668.25" y2="-248.926" gradientUnits="userSpaceOnUse"><stop stop-color="#0049D7"/><stop offset="1" stop-color="#6A0963" stop-opacity="0"/></linearGradient><linearGradient id="paint63_linear_795_160" x1="2088.03" y1="-212.047" x2="1663.92" y2="-247.368" gradientUnits="userSpaceOnUse"><stop stop-color="#0049D7"/><stop offset="1" stop-color="#6A0963" stop-opacity="0"/></linearGradient><linearGradient id="paint64_linear_795_160" x1="2083.75" y1="-216.679" x2="1659.59" y2="-245.734" gradientUnits="userSpaceOnUse"><stop stop-color="#0049D7"/><stop offset="1" stop-color="#6A0963" stop-opacity="0"/></linearGradient><linearGradient id="paint65_linear_795_160" x1="2079.42" y1="-221.219" x2="1655.24" y2="-244.022" gradientUnits="userSpaceOnUse"><stop stop-color="#0049D7"/><stop offset="1" stop-color="#6A0963" stop-opacity="0"/></linearGradient><linearGradient id="paint66_linear_795_160" x1="2075.01" y1="-225.664" x2="1650.89" y2="-242.226" gradientUnits="userSpaceOnUse"><stop stop-color="#0049D7"/><stop offset="1" stop-color="#6A0963" stop-opacity="0"/></linearGradient><linearGradient id="paint67_linear_795_160" x1="2070.55" y1="-230.017" x2="1646.53" y2="-240.348" gradientUnits="userSpaceOnUse"><stop stop-color="#0049D7"/><stop offset="1" stop-color="#6A0963" stop-opacity="0"/></linearGradient><linearGradient id="paint68_linear_795_160" x1="2065.98" y1="-234.272" x2="1642.21" y2="-238.381" gradientUnits="userSpaceOnUse"><stop stop-color="#0049D7"/><stop offset="1" stop-color="#6A0963" stop-opacity="0"/></linearGradient><linearGradient id="paint69_linear_795_160" x1="2061.48" y1="-238.508" x2="1637.77" y2="-236.403" gradientUnits="userSpaceOnUse"><stop stop-color="#0049D7"/><stop offset="1" stop-color="#6A0963" stop-opacity="0"/></linearGradient><linearGradient id="paint70_linear_795_160" x1="403.314" y1="134.493" x2="148.009" y2="-298.121" gradientUnits="userSpaceOnUse"><stop stop-color="#6A0963" stop-opacity="0"/><stop offset="1" stop-color="#0049D7"/></linearGradient><linearGradient id="paint71_linear_795_160" x1="404.165" y1="127.505" x2="141.168" y2="-298.787" gradientUnits="userSpaceOnUse"><stop stop-color="#6A0963" stop-opacity="0"/><stop offset="1" stop-color="#0049D7"/></linearGradient><linearGradient id="paint72_linear_795_160" x1="404.914" y1="120.499" x2="134.432" y2="-299.334" gradientUnits="userSpaceOnUse"><stop stop-color="#6A0963" stop-opacity="0"/><stop offset="1" stop-color="#0049D7"/></linearGradient><linearGradient id="paint73_linear_795_160" x1="405.558" y1="113.48" x2="127.799" y2="-299.766" gradientUnits="userSpaceOnUse"><stop stop-color="#6A0963" stop-opacity="0"/><stop offset="1" stop-color="#0049D7"/></linearGradient><linearGradient id="paint74_linear_795_160" x1="406.099" y1="106.453" x2="121.274" y2="-300.089" gradientUnits="userSpaceOnUse"><stop stop-color="#6A0963" stop-opacity="0"/><stop offset="1" stop-color="#0049D7"/></linearGradient><linearGradient id="paint75_linear_795_160" x1="406.535" y1="99.411" x2="114.855" y2="-300.316" gradientUnits="userSpaceOnUse"><stop stop-color="#6A0963" stop-opacity="0"/><stop offset="1" stop-color="#0049D7"/></linearGradient><linearGradient id="paint76_linear_795_160" x1="406.869" y1="92.365" x2="108.544" y2="-300.447" gradientUnits="userSpaceOnUse"><stop stop-color="#6A0963" stop-opacity="0"/><stop offset="1" stop-color="#0049D7"/></linearGradient><linearGradient id="paint77_linear_795_160" x1="407.103" y1="85.314" x2="102.343" y2="-300.491" gradientUnits="userSpaceOnUse"><stop stop-color="#6A0963" stop-opacity="0"/><stop offset="1" stop-color="#0049D7"/></linearGradient><linearGradient id="paint78_linear_795_160" x1="407.227" y1="78.259" x2="96.242" y2="-300.455" gradientUnits="userSpaceOnUse"><stop stop-color="#6A0963" stop-opacity="0"/><stop offset="1" stop-color="#0049D7"/></linearGradient><linearGradient id="paint79_linear_795_160" x1="407.251" y1="71.207" x2="90.252" y2="-300.34" gradientUnits="userSpaceOnUse"><stop stop-color="#6A0963" stop-opacity="0"/><stop offset="1" stop-color="#0049D7"/></linearGradient><linearGradient id="paint80_linear_795_160" x1="407.173" y1="64.152" x2="84.366" y2="-300.161" gradientUnits="userSpaceOnUse"><stop stop-color="#6A0963" stop-opacity="0"/><stop offset="1" stop-color="#0049D7"/></linearGradient><linearGradient id="paint81_linear_795_160" x1="406.99" y1="57.102" x2="78.582" y2="-299.918" gradientUnits="userSpaceOnUse"><stop stop-color="#6A0963" stop-opacity="0"/><stop offset="1" stop-color="#0049D7"/></linearGradient><linearGradient id="paint82_linear_795_160" x1="406.708" y1="50.055" x2="72.903" y2="-299.618" gradientUnits="userSpaceOnUse"><stop stop-color="#6A0963" stop-opacity="0"/><stop offset="1" stop-color="#0049D7"/></linearGradient><linearGradient id="paint83_linear_795_160" x1="406.32" y1="43.019" x2="67.32" y2="-299.263" gradientUnits="userSpaceOnUse"><stop stop-color="#6A0963" stop-opacity="0"/><stop offset="1" stop-color="#0049D7"/></linearGradient><linearGradient id="paint84_linear_795_160" x1="405.831" y1="35.989" x2="61.834" y2="-298.862" gradientUnits="userSpaceOnUse"><stop stop-color="#6A0963" stop-opacity="0"/><stop offset="1" stop-color="#0049D7"/></linearGradient><linearGradient id="paint85_linear_795_160" x1="405.24" y1="28.974" x2="56.443" y2="-298.416" gradientUnits="userSpaceOnUse"><stop stop-color="#6A0963" stop-opacity="0"/><stop offset="1" stop-color="#0049D7"/></linearGradient><linearGradient id="paint86_linear_795_160" x1="404.545" y1="21.974" x2="51.14" y2="-297.929" gradientUnits="userSpaceOnUse"><stop stop-color="#6A0963" stop-opacity="0"/><stop offset="1" stop-color="#0049D7"/></linearGradient><linearGradient id="paint87_linear_795_160" x1="403.752" y1="14.989" x2="45.93" y2="-297.407" gradientUnits="userSpaceOnUse"><stop stop-color="#6A0963" stop-opacity="0"/><stop offset="1" stop-color="#0049D7"/></linearGradient><linearGradient id="paint88_linear_795_160" x1="402.855" y1="8.021" x2="40.803" y2="-296.855" gradientUnits="userSpaceOnUse"><stop stop-color="#6A0963" stop-opacity="0"/><stop offset="1" stop-color="#0049D7"/></linearGradient><linearGradient id="paint89_linear_795_160" x1="401.86" y1="1.072" x2="35.76" y2="-296.274" gradientUnits="userSpaceOnUse"><stop stop-color="#6A0963" stop-opacity="0"/><stop offset="1" stop-color="#0049D7"/></linearGradient><linearGradient id="paint90_linear_795_160" x1="400.764" y1="-5.853" x2="30.794" y2="-295.667" gradientUnits="userSpaceOnUse"><stop stop-color="#6A0963" stop-opacity="0"/><stop offset="1" stop-color="#0049D7"/></linearGradient><linearGradient id="paint91_linear_795_160" x1="399.569" y1="-12.752" x2="25.906" y2="-295.035" gradientUnits="userSpaceOnUse"><stop stop-color="#6A0963" stop-opacity="0"/><stop offset="1" stop-color="#0049D7"/></linearGradient><linearGradient id="paint92_linear_795_160" x1="398.275" y1="-19.629" x2="21.09" y2="-294.387" gradientUnits="userSpaceOnUse"><stop stop-color="#6A0963" stop-opacity="0"/><stop offset="1" stop-color="#0049D7"/></linearGradient><linearGradient id="paint93_linear_795_160" x1="396.882" y1="-26.472" x2="16.341" y2="-293.714" gradientUnits="userSpaceOnUse"><stop stop-color="#6A0963" stop-opacity="0"/><stop offset="1" stop-color="#0049D7"/></linearGradient><linearGradient id="paint94_linear_795_160" x1="395.394" y1="-33.291" x2="11.66" y2="-293.032" gradientUnits="userSpaceOnUse"><stop stop-color="#6A0963" stop-opacity="0"/><stop offset="1" stop-color="#0049D7"/></linearGradient><linearGradient id="paint95_linear_795_160" x1="393.807" y1="-40.071" x2="7.04" y2="-292.328" gradientUnits="userSpaceOnUse"><stop stop-color="#6A0963" stop-opacity="0"/><stop offset="1" stop-color="#0049D7"/></linearGradient><linearGradient id="paint96_linear_795_160" x1="392.12" y1="-46.819" x2="2.475" y2="-291.612" gradientUnits="userSpaceOnUse"><stop stop-color="#6A0963" stop-opacity="0"/><stop offset="1" stop-color="#0049D7"/></linearGradient><linearGradient id="paint97_linear_795_160" x1="390.338" y1="-53.533" x2="-2.035" y2="-290.886" gradientUnits="userSpaceOnUse"><stop stop-color="#6A0963" stop-opacity="0"/><stop offset="1" stop-color="#0049D7"/></linearGradient><linearGradient id="paint98_linear_795_160" x1="388.463" y1="-60.208" x2="-6.492" y2="-290.147" gradientUnits="userSpaceOnUse"><stop stop-color="#6A0963" stop-opacity="0"/><stop offset="1" stop-color="#0049D7"/></linearGradient><linearGradient id="paint99_linear_795_160" x1="386.493" y1="-66.841" x2="-10.901" y2="-289.395" gradientUnits="userSpaceOnUse"><stop stop-color="#6A0963" stop-opacity="0"/><stop offset="1" stop-color="#0049D7"/></linearGradient><linearGradient id="paint100_linear_795_160" x1="384.426" y1="-73.434" x2="-15.27" y2="-288.634" gradientUnits="userSpaceOnUse"><stop stop-color="#6A0963" stop-opacity="0"/><stop offset="1" stop-color="#0049D7"/></linearGradient><linearGradient id="paint101_linear_795_160" x1="382.267" y1="-79.981" x2="-19.596" y2="-287.86" gradientUnits="userSpaceOnUse"><stop stop-color="#6A0963" stop-opacity="0"/><stop offset="1" stop-color="#0049D7"/></linearGradient><linearGradient id="paint102_linear_795_160" x1="380.016" y1="-86.482" x2="-23.885" y2="-287.076" gradientUnits="userSpaceOnUse"><stop stop-color="#6A0963" stop-opacity="0"/><stop offset="1" stop-color="#0049D7"/></linearGradient><linearGradient id="paint103_linear_795_160" x1="377.673" y1="-92.935" x2="-28.139" y2="-286.278" gradientUnits="userSpaceOnUse"><stop stop-color="#6A0963" stop-opacity="0"/><stop offset="1" stop-color="#0049D7"/></linearGradient><linearGradient id="paint104_linear_795_160" x1="375.24" y1="-99.34" x2="-32.361" y2="-285.471" gradientUnits="userSpaceOnUse"><stop stop-color="#6A0963" stop-opacity="0"/><stop offset="1" stop-color="#0049D7"/></linearGradient><linearGradient id="paint105_linear_795_160" x1="372.717" y1="-105.692" x2="-36.556" y2="-284.651" gradientUnits="userSpaceOnUse"><stop stop-color="#6A0963" stop-opacity="0"/><stop offset="1" stop-color="#0049D7"/></linearGradient><linearGradient id="paint106_linear_795_160" x1="370.105" y1="-111.989" x2="-40.724" y2="-283.814" gradientUnits="userSpaceOnUse"><stop stop-color="#6A0963" stop-opacity="0"/><stop offset="1" stop-color="#0049D7"/></linearGradient><linearGradient id="paint107_linear_795_160" x1="367.403" y1="-118.233" x2="-44.872" y2="-282.965" gradientUnits="userSpaceOnUse"><stop stop-color="#6A0963" stop-opacity="0"/><stop offset="1" stop-color="#0049D7"/></linearGradient><linearGradient id="paint108_linear_795_160" x1="364.614" y1="-124.418" x2="-49.001" y2="-282.098" gradientUnits="userSpaceOnUse"><stop stop-color="#6A0963" stop-opacity="0"/><stop offset="1" stop-color="#0049D7"/></linearGradient><linearGradient id="paint109_linear_795_160" x1="361.741" y1="-130.547" x2="-53.109" y2="-281.216" gradientUnits="userSpaceOnUse"><stop stop-color="#6A0963" stop-opacity="0"/><stop offset="1" stop-color="#0049D7"/></linearGradient><linearGradient id="paint110_linear_795_160" x1="358.781" y1="-136.611" x2="-57.205" y2="-280.312" gradientUnits="userSpaceOnUse"><stop stop-color="#6A0963" stop-opacity="0"/><stop offset="1" stop-color="#0049D7"/></linearGradient><linearGradient id="paint111_linear_795_160" x1="355.738" y1="-142.614" x2="-61.286" y2="-279.388" gradientUnits="userSpaceOnUse"><stop stop-color="#6A0963" stop-opacity="0"/><stop offset="1" stop-color="#0049D7"/></linearGradient><linearGradient id="paint112_linear_795_160" x1="352.611" y1="-148.556" x2="-65.358" y2="-278.444" gradientUnits="userSpaceOnUse"><stop stop-color="#6A0963" stop-opacity="0"/><stop offset="1" stop-color="#0049D7"/></linearGradient><linearGradient id="paint113_linear_795_160" x1="349.402" y1="-154.429" x2="-69.421" y2="-277.474" gradientUnits="userSpaceOnUse"><stop stop-color="#6A0963" stop-opacity="0"/><stop offset="1" stop-color="#0049D7"/></linearGradient><linearGradient id="paint114_linear_795_160" x1="346.112" y1="-160.234" x2="-73.478" y2="-276.477" gradientUnits="userSpaceOnUse"><stop stop-color="#6A0963" stop-opacity="0"/><stop offset="1" stop-color="#0049D7"/></linearGradient><linearGradient id="paint115_linear_795_160" x1="342.74" y1="-165.97" x2="-77.532" y2="-275.451" gradientUnits="userSpaceOnUse"><stop stop-color="#6A0963" stop-opacity="0"/><stop offset="1" stop-color="#0049D7"/></linearGradient><linearGradient id="paint116_linear_795_160" x1="339.29" y1="-171.641" x2="-81.582" y2="-274.4" gradientUnits="userSpaceOnUse"><stop stop-color="#6A0963" stop-opacity="0"/><stop offset="1" stop-color="#0049D7"/></linearGradient><linearGradient id="paint117_linear_795_160" x1="335.763" y1="-177.232" x2="-85.629" y2="-273.311" gradientUnits="userSpaceOnUse"><stop stop-color="#6A0963" stop-opacity="0"/><stop offset="1" stop-color="#0049D7"/></linearGradient><linearGradient id="paint118_linear_795_160" x1="332.161" y1="-182.749" x2="-89.674" y2="-272.185" gradientUnits="userSpaceOnUse"><stop stop-color="#6A0963" stop-opacity="0"/><stop offset="1" stop-color="#0049D7"/></linearGradient><linearGradient id="paint119_linear_795_160" x1="328.48" y1="-188.196" x2="-93.724" y2="-271.028" gradientUnits="userSpaceOnUse"><stop stop-color="#6A0963" stop-opacity="0"/><stop offset="1" stop-color="#0049D7"/></linearGradient><linearGradient id="paint120_linear_795_160" x1="324.727" y1="-193.563" x2="-97.774" y2="-269.828" gradientUnits="userSpaceOnUse"><stop stop-color="#6A0963" stop-opacity="0"/><stop offset="1" stop-color="#0049D7"/></linearGradient><linearGradient id="paint121_linear_795_160" x1="320.903" y1="-198.851" x2="-101.824" y2="-268.584" gradientUnits="userSpaceOnUse"><stop stop-color="#6A0963" stop-opacity="0"/><stop offset="1" stop-color="#0049D7"/></linearGradient><linearGradient id="paint122_linear_795_160" x1="317.003" y1="-204.061" x2="-105.882" y2="-267.299" gradientUnits="userSpaceOnUse"><stop stop-color="#6A0963" stop-opacity="0"/><stop offset="1" stop-color="#0049D7"/></linearGradient><linearGradient id="paint123_linear_795_160" x1="313.035" y1="-209.188" x2="-109.942" y2="-265.966" gradientUnits="userSpaceOnUse"><stop stop-color="#6A0963" stop-opacity="0"/><stop offset="1" stop-color="#0049D7"/></linearGradient><linearGradient id="paint124_linear_795_160" x1="309.001" y1="-214.232" x2="-114.004" y2="-264.582" gradientUnits="userSpaceOnUse"><stop stop-color="#6A0963" stop-opacity="0"/><stop offset="1" stop-color="#0049D7"/></linearGradient><linearGradient id="paint125_linear_795_160" x1="304.893" y1="-219.191" x2="-118.077" y2="-263.145" gradientUnits="userSpaceOnUse"><stop stop-color="#6A0963" stop-opacity="0"/><stop offset="1" stop-color="#0049D7"/></linearGradient><linearGradient id="paint126_linear_795_160" x1="300.723" y1="-224.066" x2="-122.15" y2="-261.654" gradientUnits="userSpaceOnUse"><stop stop-color="#6A0963" stop-opacity="0"/><stop offset="1" stop-color="#0049D7"/></linearGradient><linearGradient id="paint127_linear_795_160" x1="296.482" y1="-228.853" x2="-126.234" y2="-260.104" gradientUnits="userSpaceOnUse"><stop stop-color="#6A0963" stop-opacity="0"/><stop offset="1" stop-color="#0049D7"/></linearGradient><linearGradient id="paint128_linear_795_160" x1="292.183" y1="-233.553" x2="-130.319" y2="-258.496" gradientUnits="userSpaceOnUse"><stop stop-color="#6A0963" stop-opacity="0"/><stop offset="1" stop-color="#0049D7"/></linearGradient><linearGradient id="paint129_linear_795_160" x1="287.824" y1="-238.15" x2="-134.405" y2="-256.812" gradientUnits="userSpaceOnUse"><stop stop-color="#6A0963" stop-opacity="0"/><stop offset="1" stop-color="#0049D7"/></linearGradient><linearGradient id="paint130_linear_795_160" x1="283.4" y1="-242.667" x2="-138.501" y2="-255.073" gradientUnits="userSpaceOnUse"><stop stop-color="#6A0963" stop-opacity="0"/><stop offset="1" stop-color="#0049D7"/></linearGradient><linearGradient id="paint131_linear_795_160" x1="278.919" y1="-247.095" x2="-142.598" y2="-253.269" gradientUnits="userSpaceOnUse"><stop stop-color="#6A0963" stop-opacity="0"/><stop offset="1" stop-color="#0049D7"/></linearGradient><linearGradient id="paint132_linear_795_160" x1="274.377" y1="-251.43" x2="-146.702" y2="-251.394" gradientUnits="userSpaceOnUse"><stop stop-color="#6A0963" stop-opacity="0"/><stop offset="1" stop-color="#0049D7"/></linearGradient><linearGradient id="paint133_linear_795_160" x1="269.778" y1="-255.668" x2="-150.809" y2="-249.443" gradientUnits="userSpaceOnUse"><stop stop-color="#6A0963" stop-opacity="0"/><stop offset="1" stop-color="#0049D7"/></linearGradient><linearGradient id="paint134_linear_795_160" x1="265.127" y1="-259.81" x2="-154.915" y2="-247.416" gradientUnits="userSpaceOnUse"><stop stop-color="#6A0963" stop-opacity="0"/><stop offset="1" stop-color="#0049D7"/></linearGradient><linearGradient id="paint135_linear_795_160" x1="260.42" y1="-263.856" x2="-159.025" y2="-245.312" gradientUnits="userSpaceOnUse"><stop stop-color="#6A0963" stop-opacity="0"/><stop offset="1" stop-color="#0049D7"/></linearGradient><linearGradient id="paint136_linear_795_160" x1="255.661" y1="-267.805" x2="-163.134" y2="-243.126" gradientUnits="userSpaceOnUse"><stop stop-color="#6A0963" stop-opacity="0"/><stop offset="1" stop-color="#0049D7"/></linearGradient><linearGradient id="paint137_linear_795_160" x1="250.85" y1="-271.654" x2="-167.244" y2="-240.856" gradientUnits="userSpaceOnUse"><stop stop-color="#6A0963" stop-opacity="0"/><stop offset="1" stop-color="#0049D7"/></linearGradient><linearGradient id="paint138_linear_795_160" x1="245.939" y1="-275.399" x2="-171.296" y2="-238.506" gradientUnits="userSpaceOnUse"><stop stop-color="#6A0963" stop-opacity="0"/><stop offset="1" stop-color="#0049D7"/></linearGradient><linearGradient id="paint139_linear_795_160" x1="241.101" y1="-279.13" x2="-175.48" y2="-236.129" gradientUnits="userSpaceOnUse"><stop stop-color="#6A0963" stop-opacity="0"/><stop offset="1" stop-color="#0049D7"/></linearGradient></defs></svg>